<?xml version="1.0" encoding="utf-8"?>
<!-- Generator: Adobe Illustrator 17.0.0, SVG Export Plug-In . SVG Version: 6.00 Build 0)  -->
<!DOCTYPE svg PUBLIC "-//W3C//DTD SVG 1.1//EN" "http://www.w3.org/Graphics/SVG/1.1/DTD/svg11.dtd">
<svg version="1.1" id="Layer_1" xmlns="http://www.w3.org/2000/svg" xmlns:xlink="http://www.w3.org/1999/xlink" x="0px" y="0px"
	 width="50px" height="50px" viewBox="0 0 50 50" enable-background="new 0 0 50 50" xml:space="preserve">
<g>
	<path d="M29.828,17.623l5.165-0.152v11.161c0,0.305,0.074,0.522,0.221,0.651c0.212,0.185,0.48,0.278,0.803,0.278h1.468v1.038
		h-7.381V29.56h1.371c0.406,0,0.704-0.1,0.893-0.298c0.189-0.199,0.284-0.487,0.284-0.866v-8.171c0-0.517-0.148-0.907-0.443-1.17
		c-0.296-0.263-0.734-0.395-1.315-0.395h-1.066V17.623z" fill="#825000" />
	<path d="M33.428,12.458c0.416,0,0.78,0.157,1.094,0.471c0.314,0.314,0.471,0.683,0.471,1.108c0,0.416-0.152,0.775-0.457,1.08
		c-0.304,0.304-0.669,0.457-1.094,0.457s-0.792-0.154-1.101-0.464c-0.309-0.309-0.464-0.671-0.464-1.087s0.157-0.78,0.471-1.094
		C32.662,12.615,33.022,12.458,33.428,12.458z" fill="#825000" />
</g>
<circle fill="none" stroke="#825000" stroke-miterlimit="10" cx="33.415" cy="21.188" r="14.067"/>
</svg>