<?xml version="1.0" standalone="no"?>
<!DOCTYPE svg PUBLIC "-//W3C//DTD SVG 1.1//EN" "http://www.w3.org/Graphics/SVG/1.1/DTD/svg11.dtd" >
<svg xmlns="http://www.w3.org/2000/svg">
<metadata></metadata>
<defs>
<font id="creepsvilleregular" horiz-adv-x="1139" >
<font-face units-per-em="2048" ascent="1638" descent="-410" />
<missing-glyph horiz-adv-x="569" />
<glyph horiz-adv-x="2048" />
<glyph horiz-adv-x="2048" />
<glyph unicode="&#xd;" horiz-adv-x="569" />
<glyph unicode=" "  horiz-adv-x="569" />
<glyph unicode="&#x09;" horiz-adv-x="569" />
<glyph unicode="&#xa0;" horiz-adv-x="569" />
<glyph unicode="!" horiz-adv-x="517" d="M15 1784l28 12l72 -12q31 0 96 28q47 15 196 40l80 28v-4l24 8h4v-8q-9 0 -20 -16l4 -4h4q-33 -112 -48 -124l-24 -120l4 -12l-4 -84v-12l-4 -4l4 -4v-20l-4 -100q31 -20 52 -52v-4l-16 -44l4 -4v-4q0 -12 -12 -12v-8h8q-12 -120 -28 -120v-24l12 -40q-40 -193 -56 -212 l-4 -20l4 -4v-4l-4 -12l4 -24l-4 -4l4 -4v-8l-4 -4l4 -4v-4l-4 -4l8 -32h-4l4 -12l-4 -32l4 -24l-4 -12q8 -16 8 -44v-4l-12 -60v-36l-12 -12l-48 96l-4 4h-8v-4l-4 -44l4 -4l-4 -20v-12l4 -24l-8 -32v-32q-18 -32 -24 -32h-4q0 13 -28 40q-12 22 -24 120q-7 19 -40 48l8 64 q0 27 -16 84l4 36l-12 68l4 4v4l-12 36h4q-8 21 -8 84v32l4 4q-18 38 -44 48q-24 4 -24 12q16 39 20 92l-4 4v4l4 12q-16 30 -16 72h4l-4 4v24l4 24l-4 4v4l4 4q-11 105 -24 108l4 16q-8 118 -28 172l-4 4l4 4zM215 200v48l4 4l-4 4q0 67 44 88q86 56 120 56q21 0 84 -44 q51 0 60 -56q-19 -140 -56 -168h-8q0 -16 -44 -56l-24 -196h-16q-15 60 -24 60h-12v-20q0 -20 -12 -24q-11 14 -48 172q-60 49 -60 116zM367 1028h4v8h-4v-8z" />
<glyph unicode="&#x22;" horiz-adv-x="539" d="M23 1637l144 55l33 6q66 -28 66 -50l-11 -60v-39q0 -47 39 -138h-6l6 -17l-39 -83q-7 -60 -44 -60l5 -6v-16h-16q-47 134 -105 237q-11 13 -11 39q-19 2 -39 77q-7 0 -22 55zM84 1521h11v6h-11v-6zM294 1637l5 33l-5 28q18 5 27 88l-5 17q11 0 11 16l5 6h6l55 -11l6 5 q110 0 110 -82q-21 -35 -39 -116q-11 0 -11 -28l-5 -39h-6l6 -5l-11 -94l5 -6v-5l-11 -99l6 -17l-6 -6h-11q-33 39 -94 155l6 6h5q-45 71 -49 154z" />
<glyph unicode="#" />
<glyph unicode="$" />
<glyph unicode="%" horiz-adv-x="1821" />
<glyph unicode="&#x26;" horiz-adv-x="1366" />
<glyph unicode="'" horiz-adv-x="391" />
<glyph unicode="(" horiz-adv-x="682" d="M0 678l18 269l-6 45h6l-6 6v7q27 161 54 179l155 294q12 18 24 96l-6 7q52 70 96 217h6v39l18 6v-6l6 6h6q12 -11 96 -19v-6h-12v-7l30 -6h30v6h-12v13q59 -16 149 -83l-12 -13h-18l-18 13h-18v-19l30 -7q-84 -114 -95 -185l6 -39v-6l-6 -7v-6q12 0 12 -19 q-68 -109 -78 -109l6 -6v-7q-12 0 -12 -19l-6 -6h-6l6 -7v-6l-18 -45l6 -6v-20l-78 -160q-21 -6 -66 -147l6 -6l-6 -32v-7q0 -27 42 -96v-12l-6 -7l12 -51v-51l12 -19v-7l-6 -6q3 -57 96 -205q11 0 48 -102l24 -26q119 -49 119 -141q52 -44 60 -89l-6 -7q16 0 30 -38 l-12 -13q-70 63 -227 122l-78 19q-10 -32 -36 -32q-78 134 -102 205q-66 68 -113 224q-29 39 -108 89zM323 224l12 13v6l-12 -13v-6z" />
<glyph unicode=")" horiz-adv-x="682" d="M0 1663v18q0 12 74 37v12h5l-10 37l15 18h34q63 0 211 80l84 -37q29 0 59 -159l79 -148l14 -85l-24 -7v-6q34 -34 34 -79h-5l5 -7v-24l-10 -37l10 -12v-25q0 -77 69 -178v-18l-25 -43l-14 6v-12h10l-74 -209q0 -49 -10 -49l5 -6v-24q0 -32 -15 -37l5 -6v-31l-5 -6l5 -6 q-14 -105 -29 -105l4 -6v-6q-15 -65 -118 -190q0 -13 -83 -147q-4 -39 -39 -74l-45 6q-61 -26 -88 -92l-5 -6q-16 6 -20 25q36 112 99 208q83 176 83 295q0 83 64 405l10 61l-59 159l5 6q-7 0 -30 86q-84 130 -88 215l5 19q-33 92 -84 92q-3 11 -44 24q0 12 -35 55l5 6l-5 7 l-14 -7z" />
<glyph unicode="*" horiz-adv-x="797" />
<glyph unicode="+" horiz-adv-x="1196" />
<glyph unicode="," horiz-adv-x="330" d="M8 227l17 17l-6 5v6l51 112l16 -11l6 5h17l151 -5v-6l6 6q50 -6 50 -17l-45 -207l12 -51q-185 -190 -185 -291v-28l-17 -17q-19 0 -39 174l-12 28v6q62 126 62 151q-20 59 -84 123z" />
<glyph unicode="-" horiz-adv-x="682" d="M15 909h8l-8 4v12l16 8h8l16 -8q317 37 445 76l32 8l55 -4q0 16 24 16l56 12v-4l-8 -24l8 -4v-4l-16 -16l8 -16l-8 -12l8 -16h-8l8 -4l-8 -28v-28l-8 -4l8 -4v-12q0 -44 -215 -52l-302 -64q-95 0 -95 76zM619 913h8v8h-8v-8zM627 1001h8v8h-8v-8z" />
<glyph unicode="." horiz-adv-x="315" d="M0 180v124l19 18h6l6 -6q13 0 74 106l19 12h6q53 0 112 -50q14 0 56 -49v-13l-19 -18l6 -6v-118l-6 -6l12 -56h-6l6 -6v-38q0 -10 -62 -43q-12 -28 -24 -31q-36 25 -69 31l-18 -6v6l-68 -25q-50 58 -50 174z" />
<glyph unicode="/" horiz-adv-x="569" />
<glyph unicode="0" />
<glyph unicode="1" />
<glyph unicode="2" />
<glyph unicode="3" />
<glyph unicode="4" />
<glyph unicode="5" />
<glyph unicode="6" />
<glyph unicode="7" />
<glyph unicode="8" />
<glyph unicode="9" />
<glyph unicode=":" horiz-adv-x="502" d="M30 1103l16 33l-8 8v8q0 17 148 42l8 -9l157 25h41l24 -25v-8l-24 -33l8 -49l-17 -90l9 -9l-17 -98l17 -58l-132 -33l-8 9h-8l-50 -17h-24l-9 8l-8 -8h-16l-8 8l-9 -8h-24q-27 7 -41 132h8zM63 536q0 41 66 66v-8l148 98l82 33h33l16 -16l-16 -50q0 -24 32 -24l33 -91 l-8 -8q33 0 33 -148v-33l-8 -8l16 -49l-24 -8l-9 8h-8l-8 -8l-41 8q-169 -41 -206 -66l-57 107l8 8v8l-74 173z" />
<glyph unicode=";" horiz-adv-x="464" d="M45 255l14 42l-7 7l42 98l-7 28l42 70l105 7q0 -12 106 -28l7 7h7q78 -17 84 -35l7 7h14l14 -14v-7q0 -14 -35 -14v-7l21 -7l-84 -189q-33 0 -127 -245q-22 -49 -49 -49v-84l-21 -22h-7v8l7 7l-14 35l7 7l-14 14v14l7 7v7l-14 14l7 7v7l-21 14l-7 -7l-7 7v21h14v7 q-21 0 -21 13v7q0 42 28 42l-7 7v14l28 106q-45 35 -112 56zM73 725q49 60 49 154l56 42q48 -38 112 -42q99 -63 99 -112l-21 -42l7 -7v-7l-21 -85h-14v14h-22v-7q22 0 22 -14h-14l-22 7v-14h36v-14l-29 -21l-7 7h-7l-21 -7v7l-7 -7h-7l-28 14l-7 -7q-154 0 -154 141z M94 290h14v7h-14v-7zM290 830l43 -28h7q-7 23 -29 28v14h-21v-14zM396 374h14l14 35v14q-12 0 -28 -49z" />
<glyph unicode="&#x3c;" horiz-adv-x="1196" />
<glyph unicode="=" horiz-adv-x="1196" />
<glyph unicode="&#x3e;" horiz-adv-x="1196" />
<glyph unicode="?" horiz-adv-x="1041" d="M0 1564q106 35 106 65l-5 4v9q97 117 259 164q0 15 80 22v-5l127 22q48 -3 48 -9l5 5l191 -26q2 9 27 17l-6 4v13l11 9h5q62 -25 117 -86q26 -48 37 -48l-5 -60q53 -212 74 -212q-41 -90 -90 -104q-54 -48 -59 -91l6 -4v-4l-11 -35l27 -65h-6l6 -4v-9l-80 -34 q-97 -70 -201 -125l-11 -13l5 -26q-8 -69 -16 -69l6 -5l-16 -69v-52l-11 -151v-9l-10 -8q-33 9 -64 95l-16 8q-29 0 -37 -86l-42 -43q-69 0 -69 21l-16 18v30l5 4l-5 5v4l5 30q-15 8 -53 69l5 22q-8 45 -37 86l6 5v4l-6 17h6l-6 5q9 60 16 60l-5 4q0 80 95 117 q236 164 239 186q69 161 69 224l-21 13l-22 -4v4l-5 -4h-11v9h-15q0 -18 -43 -48l-16 -17h-5l-21 22l5 4l-5 4v5l5 4l-11 34h6q-11 26 -43 26q-51 -67 -90 -86l-10 -35v-17l15 -22l-5 -168l-5 -17l5 -13q-10 0 -10 -18h-11l-5 18q10 0 10 13q-26 27 -37 56q-23 0 -63 34v-8 l10 -13v-82l11 -35l-48 -117l-16 -8q-12 0 -37 104q-103 169 -106 220q-30 30 -74 125l5 13zM196 1344l11 -9l5 4v5l-16 13v-13zM318 389l80 69q14 0 26 26h5l6 -4h5q38 47 106 47q50 0 80 -47q76 0 84 -78q0 -118 -84 -151q-31 -24 -43 -65l5 -5l-31 -172l5 -5l-5 -4h-6 l-21 69h5l-5 13h-37l-16 -13v-13l5 -17l-5 -13h-11l-10 9l5 21l-5 -4h-5l-6 4v4l6 13q-20 25 -59 134l6 5l-38 43v9l6 17q-23 27 -48 108zM366 415h5v8h-5v-8zM466 78h6v8h-6v-8zM567 1478h6q24 8 26 17h-5q-27 -5 -27 -13v-4zM573 1759h21v8h-6l-15 -4v-4zM583 652 q8 -17 16 -17l5 22v4h-5zM684 1085h10v8zM843 1845h10v4h-10v-4z" />
<glyph unicode="@" horiz-adv-x="1064" d="M0 957q0 14 99 116l174 203q66 75 127 93l18 17h121l168 -35l6 6l29 -6h47l69 6q116 -65 116 -116l-6 -6v-6l6 -23h-6l6 -6v-232q-19 -165 -58 -174l-40 -46l11 -87q-23 -46 -151 -46q-76 -31 -139 -41l-46 64h-12q-32 0 -156 -87h-12q-41 37 -46 93q-76 51 -76 133 q96 124 128 203q13 0 139 116l23 6q43 0 105 -52l40 34l6 -5v-6l-11 -18l17 -23v-11q0 -53 -23 -128l6 -6l-18 -162q1 -23 12 -23q116 17 116 46l-6 6v6l6 23l-12 156v6l6 6l-12 52l12 47v17q-103 145 -226 145q-174 -32 -244 -104l-127 -134q-29 -53 -29 -81v-17l5 -41h-5 q0 -61 87 -214v-6l-6 -6v-6q27 -45 58 -145l23 -29l29 -6l365 70q0 12 35 12l17 -6q0 17 53 23q17 12 23 41q112 98 133 173q40 0 58 157h6q14 0 29 -93v-6l-17 -75l5 -6q-34 -174 -69 -197l6 -6v-5l-64 -93q-37 -58 -76 -163q-9 0 -17 -34l-23 -6q-22 44 -41 52h-11 q-35 -26 -35 -93l-6 -6h-6q-15 7 -40 53l-6 5h-12l-40 -220h-18q-68 137 -92 215q-14 75 -24 75q-81 -65 -81 -139h-11l-105 168q-16 21 -98 58q-87 122 -87 220h5zM423 748l58 -6q29 21 29 139l-5 24h-12q-59 0 -70 -145v-12z" />
<glyph unicode="A" horiz-adv-x="1026" d="M75 1607v7q0 8 22 12l4 -4q33 30 33 78v3l-26 60l4 3q0 19 -18 48l3 12h19l7 7l71 -19l3 4l8 -7l3 3h4q38 -3 104 -51l52 -19q51 -3 81 -30l11 4l15 -4l19 8q33 -3 33 -11l4 3l18 -3q30 0 137 33q15 -5 15 -11q-4 -22 -11 -22l4 -4v-4l-8 -70v-19q0 -93 63 -174l74 -151 l-4 -15l15 -48l-7 -8l18 -115l-3 -14q0 -38 77 -204q8 0 30 -85l15 -60l-4 -3v-4q10 -16 15 -67l-4 -22v-55l4 -15l-4 -15l4 -4v-3q-14 -69 -22 -167l-11 11v52l-4 15l4 3l-15 78h-8l12 -67h-15l-4 19h-7l3 -4v-7l-3 -4l3 -4q-7 -37 -7 -118v-19l-4 -3l4 -4l-4 -37v-7l4 -19 h-4l4 -4q-3 -37 -11 -37q-19 47 -19 74h-7q-15 -39 -26 -111h-4q-15 0 -22 85h4l-11 37l3 4v4l-11 48l4 19l-11 25h-8q-9 -40 -18 -40l4 -4v-4l-15 -48h-4l-11 11l4 4l-8 41h4l-7 29v30l3 4l-11 33h4q-30 82 -30 241h-3l-26 -30h-4l-19 15l-3 -4h-8q-7 0 -11 22l-41 12 q-59 -6 -59 -26l4 -4v-4l-11 -44l3 -22q0 -76 -18 -112l4 -3l-4 -111v-11l4 -23l-11 -122l-4 -4h-8q-17 97 -33 97l-18 3h-8l19 -174h-4l4 -11l-4 -3l4 -19v-7l-4 -19h-11q-8 0 -11 37h-4l-4 -4v-3l4 -4l-4 -19l4 -18l-4 -4h-3l7 -70l-4 -4h-3q-26 53 -41 126q-6 0 -48 74 q-34 50 -34 74q-32 -52 -37 -126v-37h-7q-8 0 -22 74v11l-19 -3h-11v-22l-7 -8q-9 0 -19 71l-4 3l4 41v7q0 13 -15 26v4q7 130 15 130l-4 3l4 26v26l4 71l-22 85q-19 0 -19 11l52 152l-15 81l4 4q-10 0 -15 130l-44 51q29 149 29 241h4l-4 4v22l4 52l-26 63v26l4 3v4 q-10 0 -30 82q-11 0 -11 7zM250 1803l4 -3h4v11zM258 1618h7v4h-7v-4zM276 1252h8v3h-8v-3zM302 437l4 -4h4v11zM306 344l7 8v7h-7v-15zM310 918h7v8h-7v-8zM310 933h7v11l-7 -7v-4zM310 948l3 4h4l-4 33h-3v-37zM373 196l7 7l-4 4h-3v-11zM430 955q0 -41 41 -41l114 26 l4 -3h4l15 7l14 -4l-3 12l3 18l-3 33h3l-3 4l3 26v37l-3 26h3q-7 10 -14 104l3 18q-7 0 -15 30q-16 -1 -33 -15h-4q-13 0 -44 167q-35 113 -52 122h-4l-3 -37v-4q0 -32 22 -126q-8 0 -30 -74l4 -4v-3q-22 -58 -22 -263l3 -19zM517 133h7v4h-7v-4zM650 707h4v11h-4v-11z M717 1322h7v7h-7v-7zM736 914l18 -3l-7 7h-11v-4zM936 1240h3v8h-3v-8z" />
<glyph unicode="B" horiz-adv-x="921" d="M0 1736l4 4q17 -5 24 -20l88 12l4 -4h4l4 4l40 -8q42 38 136 60l152 28q163 0 284 -56q68 -54 68 -80l-4 -28q7 -43 56 -156l-16 -52l4 -24v-4l-4 -4l8 -28q-9 -78 -20 -96l4 -4l-8 -32h-24l-16 -12l-16 8q-16 0 -92 -56l-16 -8q29 -22 172 -92q64 -104 64 -152l-4 -4 l4 -24q0 -138 -28 -288l-4 -48h-8q-24 92 -32 92h-4q-76 -158 -76 -196q-5 0 -12 -28h-12l-12 8h-4q0 -12 -8 -12q0 24 -44 24v-4q-36 -103 -52 -216l4 -4q-4 -44 -12 -44t-12 44l4 24v16l-24 96h4q-7 36 -16 36l-40 -48l-32 -80l4 -4q-5 -40 -16 -40h-4l-8 32l4 4l-56 120 h-8q-68 -346 -68 -384l-8 -8l-12 16l4 16l-4 4l4 20v28l-8 8q-14 0 -28 -88h-4q-8 0 -20 56h4q-16 18 -20 72h4l-4 4v16l4 4l-4 4v24l4 16l-4 12l4 4v4l-4 12h4q-9 104 -32 104h-4q0 -34 -8 -52l4 -16v-8h-8q-9 0 -16 28l4 16l-4 24h4l-12 104l12 72l-8 24l8 8l-4 4v4 l24 132l-4 28v68l-4 40l4 36v40l-4 20h-8q-11 -5 -32 -60h-4l-12 16l4 4l-8 48q8 17 8 64v28l4 4l-4 12l4 16l-4 24l4 56l-4 4v4l4 4v4q-10 52 -64 100l4 12l-4 12q6 128 12 128l-4 4v4q6 80 12 80l-4 4v4q3 52 8 52l-8 32l4 24l-96 128zM360 760h4v8h-4v-8zM432 1436l8 -80 h4q93 112 124 112q45 0 72 64q-30 76 -112 76h-12q-68 0 -68 -32l-12 -60l4 -4l-8 -44l4 -4v-4zM436 340h12l-4 16h-8v-16zM448 956q16 -53 16 -144v-40l4 -12l-4 -20v-112l4 -4v-4l16 4q52 0 52 -36v-12q60 0 60 104q39 79 92 132l12 44q0 7 -88 80h-4q-9 0 -24 -52l-4 -4 h-8q-61 112 -120 112h-4v-16l4 -20h-4zM576 368h8v4h-8v-4zM580 340h8v8zM592 324h8v4h-8v-4zM848 664h8v4h-8v-4z" />
<glyph unicode="C" horiz-adv-x="851" d="M0 835l37 222l-5 4q0 94 74 308v8h-4l-14 4l-56 -62h-4l-9 8q46 117 97 179q6 22 28 35q0 12 64 78l5 43v20l5 4l-10 27q109 102 148 152h14q35 -39 65 -39q60 0 273 -152q70 -28 70 -63l27 -70h-4l4 -4v-31q19 -56 19 -101l-60 -188l4 -4v-11l-9 -8q-12 0 -18 47l4 19 l-9 43q-23 0 -23 -54l-9 -20l4 -12q-7 -35 -18 -35h-10q0 17 -13 35l4 24q-5 39 -18 39q-53 -124 -74 -145q-16 0 -51 -101h-5q-12 0 -42 113l-4 12l-5 4q0 11 -9 11l9 67l-9 140q-21 0 -93 -136q-25 -21 -37 -110l51 -183l23 -43q-14 -16 -18 -58l9 -63h-5q14 -66 14 -148 v-4q0 -30 19 -35q60 39 60 97v36l-5 27h5l-5 4v23q0 94 19 94l-5 4q4 43 14 43l51 -55h5q18 15 41 82l5 4h5l9 -24l-9 -39l4 -4l-9 -70l5 -19l-5 -4l14 -109h5l9 43l-5 3v4q51 160 70 184h4q15 0 33 -63h4q17 2 33 90l14 8l4 -4v-51l9 -66q-9 0 -13 -133l-14 -4l14 -86 q-61 -211 -74 -292h-5l-9 15v20l-10 47h-14q-72 -123 -78 -184l-5 -4h-4q-10 0 -10 20q-6 20 -46 66l5 4v4l-19 12h-9q-14 0 -56 -219q-6 0 -14 -58h-4l4 -4v-20q0 -20 -13 -23h-5q-24 141 -37 144q-26 -70 -33 -70l5 -4v-11h-5l-9 7v24l-4 39h4l-4 4v15l4 4q-14 29 -18 66 h4l-23 75l-14 7h-4q-6 -31 -19 -31h-5q-23 10 -23 28h-4l-33 -55l5 -4l-5 -4h-9q-17 8 -42 98l-97 124q-37 158 -37 188zM213 1174h9v12l-9 -8v-4zM264 300h9v4h-9v-4zM338 289h5v8h-5v-8zM347 1249h5l9 7v4h-9zM356 1264h5l23 27v4h-9zM361 164h5v8h-5v-8zM431 156h4v8h-4 v-8zM472 277h9v4h-9v-4zM477 285h4l5 15h-9v-15zM532 1112h10l4 12l-4 4h-5z" />
<glyph unicode="D" horiz-adv-x="861" d="M0 1848v24h4l20 -16l68 4h84l24 4q255 -64 296 -100q38 -18 188 -164l40 -64q12 -35 28 -148q14 -9 44 -148l24 -36q-48 -72 -48 -100v-24l-4 -4l4 -4v-4l-12 -116v-12l-4 -4l12 -72l-4 -116h-4l4 -4v-24l-4 -4l8 -40q-57 -149 -60 -184l-4 -20l-4 -4h-12q-26 16 -40 16 q-66 -12 -132 -76q-15 -35 -24 -36l4 -4v-4q-18 -40 -24 -40l-40 116h-4q-14 0 -64 -160q-11 -49 -20 -60l4 -4q-14 -76 -20 -76l-8 12v52l-4 16l4 4v4l-4 4l8 40l-4 24h-4l-40 -116h-4l-4 12l4 36l-4 12l4 4l-8 56h4q-10 96 -24 108q-7 0 -16 -36q-49 -78 -72 -136 q-23 -39 -68 -164l4 -4l-4 -4h-4l4 -4v-16l-4 -4l4 -4v-36h-4q-16 0 -16 60l4 4l-4 4h-4l4 20q0 26 -28 116l16 72l-4 12h4q-6 24 -12 24l4 16l-12 84l4 4v4l-4 4v4l16 88l-20 52q4 82 12 100l-4 4l8 52l-4 16l8 32l-4 36v12l4 4l-4 4l8 44l-4 4l12 96l-4 4v4l4 4v4l-4 4 l4 20l4 208h4l-4 36h-4q-24 -57 -28 -92l-4 -4h-8l-8 36h4l-4 4v104l4 4l-4 4v4q52 120 52 220l-16 8q-14 -28 -20 -28l-8 20q8 0 44 168q-52 131 -68 144zM32 1240h8v16h-8v-16zM76 88l4 -4h8v36h-8v-24l-4 -4v-4zM128 840h4l4 20h-8v-20zM128 864h8v8h-8v-8zM260 932h8v16 l-8 -8v-8zM332 1384l16 -136l-8 -84l4 -4v-4l-4 -4q24 -139 44 -356l-16 -112q3 -32 12 -32h20q27 0 112 120q44 56 44 160q10 0 12 84l-12 192q-28 0 -28 56l-32 112h-4q-13 0 -32 -108l4 -32l-4 -4h-4q-12 0 -24 60l-4 4h-4l-12 -120l4 -20l-4 -4l4 -4l-4 -4h-4l-8 8h4 l-8 24v12l4 4q-25 67 -32 244q-6 0 -16 76h-8l-8 -8zM420 508h8v4h-8v-4zM440 1340h8v4h-8v-4zM468 408l8 -28h4v24l-8 8h-4v-4zM672 500h12l8 8l-8 8z" />
<glyph unicode="E" horiz-adv-x="878" d="M0 1733v4l4 4v4l-4 4l12 4q20 0 20 -8l4 4l48 -4q90 0 204 23l120 4l100 -23q161 62 204 90q11 19 36 19l16 -8l-12 -152v-4q11 -119 28 -190l12 -78l-4 -20l4 -23l-8 -39l4 -4q-3 -51 -12 -51h-8l-8 47l4 4l-4 4h-4l4 4v4l-8 46v4h-16l-8 -54l4 -12l-4 -4h-8l-16 31 q-25 125 -116 125q-17 9 -64 58l-24 4h-20l-72 -11q-30 15 -48 15q-16 -21 -16 -35v-4q24 -67 24 -89l4 -39v-74l-4 -4l4 -4v-4l-12 -101l28 -12q43 23 76 23q80 -27 80 -66q25 -19 48 -19l24 7h44l4 -3q48 3 48 11l4 -4h8q0 12 12 12l16 -12q-32 -127 -32 -218v-27l-4 -4 l4 -4v-15l-4 -4l4 -4l-4 -27v-28l-12 -11h-8l-12 74l-36 -24h-4q-60 36 -60 63l-80 70l-12 4l-28 -4l-56 4l-4 -4v-4l8 -55l-4 -11l4 -12l-4 -4l4 -19v-36q13 -140 24 -140h16l20 4v-4l4 4h12l4 -4l4 4l108 -8v-4l4 4l40 -7l4 3h16l4 -3l4 3h16l4 -3h4l100 31q0 8 32 23h4 q8 0 8 -12q-44 -84 -68 -222l4 -4q0 -63 -20 -124l4 -4v-23l-4 -43l8 -35l-4 -35l4 -47q0 -27 -8 -27l8 -51l-4 -4v-4l8 -35l-4 -12l8 -23h-4l12 -31l-4 -4h-4q-12 0 -28 78l-20 54l4 16l-28 27h-8q-3 -39 -12 -39h-4q-36 97 -36 113l4 4q-6 0 -24 74h-4q-27 -53 -32 -89 h-12q-11 50 -32 50l-16 8q-16 0 -36 -23q-19 14 -92 31h-4l-52 -129l4 -4v-7l-8 -8l4 -4l-4 -20l4 -11l-4 -4h-12l-4 31l4 4l-8 8l4 4l-12 62l4 4l-12 8h-8l-12 -8l4 -4q-13 -62 -20 -62q-28 0 -40 109q-12 15 -12 31h4l-12 27h-8q-40 -80 -52 -144q-26 -20 -36 -74 q0 -20 -8 -20h-12l-4 28v4l4 4v3q-11 0 -16 39v4l4 4v4q-10 0 -16 31v12l4 19l-4 12l4 62v4l-4 74l4 55l-4 4v4l32 226l-28 163h4l-16 148l-12 12v4q24 48 56 269h4l-4 3l4 47v4q0 68 -8 105h4l-28 125l4 4q-7 61 -44 109q-15 54 -32 54zM28 1768l4 -4v-4l12 4v4l-12 12 l-4 -4v-8zM96 156h12v4h-12v-4zM168 1256l8 -8h16v12l-16 8l-8 -8v-4zM176 1020h4v12h-4v-12zM176 1064h4v12h-4v-12zM176 1080h4v8h-4v-8zM176 1092h4v8h-4v-8zM176 1104h4v12h-4v-12zM252 1732h12v4h-12v-4zM320 1660l28 4l-8 8h-20v-12zM388 480h12v8h-4zM416 536h4v8h-4 v-8zM556 400l8 8v4l-8 -8v-4zM660 676h8v4h-8v-4zM692 976h4v8h-4v-8z" />
<glyph unicode="F" horiz-adv-x="918" d="M0 1804l12 12h12l4 -4l4 4h20q64 0 104 -20q149 20 188 52q25 0 92 36h20q18 -32 136 -76l40 4h32l40 -4l88 16l36 -4l28 16q8 0 8 -12h20l4 -4h4q-24 -46 -40 -140l-24 -64l-4 -28l4 -4l-4 -20v-8l12 -88l-20 -56l-20 -160v-32l-12 -12l-8 24l8 8l-8 8l4 4v4 q-7 3 -32 92l-12 32h-4l-4 -4v-4l4 -4v-4l-16 -48h-4q-9 0 -16 28l4 4v4q-8 69 -16 84l4 4v4q-14 104 -32 104q-17 -94 -48 -128q-4 -64 -16 -64h-4l-4 28l4 4q-12 79 -28 112l-24 80h-4l-40 -12l-8 8h-28q-21 0 -44 -40q-12 -21 -12 -40l4 -80h-4l4 -4v-12l-4 -4l4 -4v-4 l-4 -4l4 -4v-4l-4 -4l4 -4v-16l-4 -16q7 -68 24 -68l96 -8h8l60 16l84 -4l4 -4v-4l-8 -16l4 -4l-24 -176l4 -4v-4l-4 -4v-4l12 -64l-12 -52v-24l-4 -4l4 -4v-4q-3 -24 -8 -24l4 -4v-20l-12 -12q-11 0 -16 48h4q-32 79 -44 88l-20 -80q-16 6 -16 12l4 4l-16 48h4 q-35 112 -88 112v4l-12 -4l8 -92h-4l4 -4l-4 -20v-24l4 -16l-4 -16l4 -12l-4 -16v-4l8 -12l-8 -108l4 -4l-4 -20v-112l-4 -24l4 -20h-4l4 -4v-12l-4 -4l4 -4v-12l-4 -16l4 -28v-56h-12q-7 52 -16 52h-4v-32q-8 -9 -16 -52l8 -76h-4l4 -4v-4l-8 -32l4 -48l-4 -4h-12 q-5 60 -20 60v-8h-4l4 -4v-4q-12 -46 -12 -96v-20l-8 -8h-12l8 8q-15 31 -32 108q-12 0 -20 76v24q-12 0 -12 12q-23 -32 -36 -260l4 -4v-4q-16 -37 -16 -72l4 -4v-4l-4 -16h-16l-8 68q-6 0 -16 -32q-12 0 -12 -20v-8l4 -20l-4 -4h-8l-4 20h4q-11 15 -24 96h4l-12 44h4 l-12 40l4 24l-4 28l4 4l-4 4q20 5 20 12q-20 0 -20 12q3 60 8 60l-4 4v4l4 4l-4 20v16l4 4l-4 4v12l4 4l-4 4l8 44l-4 4l4 20v32q0 60 -8 96l4 12q-20 0 -32 -116v-4h-12l-4 20l4 12l-4 12h4l-4 12v8h4l-4 28v40l4 4l-4 4v4l4 16q-4 69 -32 220h-8l-8 -108v-4h-12l-4 20l4 4 l-12 44v4l4 4v4l-8 8l8 8l-8 8v4l4 20l-4 24v16l4 4l-4 4v4l4 4l-4 12l4 4v4l-4 4l12 80l-4 4v8l4 4l-4 4l20 80l-4 4l16 104l-4 4v20l4 4l-4 4l4 24l-4 36l4 12l-4 4l4 20v60l4 4l-4 12q0 93 -12 176l8 28v4l-4 20l4 4q-8 0 -16 44h4q-12 36 -32 52zM132 296l8 -8v12h-8v-4 zM324 220l4 -12h4l4 12l-4 4h-8v-4zM400 1560h4l8 8v4h-4l-8 -8v-4zM612 940l8 -8h4l-4 16h-8v-8zM684 1532l4 -16h4v16l-4 4h-4v-4zM756 1360h4v8h-4v-8z" />
<glyph unicode="G" horiz-adv-x="961" d="M0 898q8 80 16 80l-4 4l8 36l-20 80q100 258 172 408l-4 12q3 24 8 24l-4 4v28l4 4l-4 4v4q0 63 36 68q0 8 48 48q69 88 92 88l4 -4l88 72h36q203 -82 348 -160q31 -18 92 -80v-16q-16 -24 -20 -60h-4q12 -61 20 -184l-4 -12l8 -72v-12l-16 -52l4 -4v-4l-36 -180l-4 -4 h-4l-4 4v4l4 4q-6 0 -16 48h4l-32 120h-8q-25 0 -40 -96l-4 -4v-4h-8q-9 3 -24 80l-4 4v4l4 4h-12q-14 -80 -28 -80q-20 -28 -32 -116h-12q0 38 -24 84v80l4 24l-4 16h4l-4 4v16l4 12l-4 16l-4 116l4 4v4q-18 165 -52 188h-4q-13 -9 -28 -68l-4 -4l-24 -88h-4l4 -4l-16 -104 v-36l-8 -8q-11 0 -24 100l4 4l-4 4h-12q-9 0 -20 -72h-12l-28 156q-12 0 -48 -192l-4 -20l12 -64l-4 -16l4 -4v-4l-4 -4l4 -16l-4 -44l4 -20q-72 -63 -72 -120l-8 -8v-40l-4 -16l4 -4l-4 -20l4 -92q124 -108 124 -116l72 -64l36 -20q124 6 124 28l8 24l-4 20h4l-20 68 q-15 0 -68 -44l-28 -8h-8q-17 9 -52 120q-19 0 -32 84l-48 116l4 4h4l64 -16l4 -4h16l64 20l48 -4l176 16l24 -4h24l36 8l4 -4h4l4 4h4q50 0 56 -44l-4 -32l4 -16l-8 -56v-52l-4 -4l4 -4v-24l4 -48l-4 -60v-68l-4 -4l16 -124q-10 -48 -16 -48q-7 0 -12 28l4 4v4 q-12 21 -16 68h-8l-16 -48l4 -4v-4l-4 -4v-4l8 -36l-4 -16l4 -152l-8 -40v-84q-16 -18 -16 -112v-4l4 -16l-4 -16v-4l4 -20h-4l4 -4v-8l-12 -12h-8l-8 8l4 4l-32 148l4 12h-12q-10 -80 -20 -80h-4l-8 8h4l-4 4v56l4 4l-4 4v36l-36 172h-4q-31 -45 -56 -148h-12q-10 0 -12 16 q-31 0 -44 -88h-8q-9 0 -12 32l4 4v4q0 17 -32 80q-4 40 -32 40l-16 8q-32 -94 -52 -104l-4 -4h-4l-124 104l-12 4q-5 -18 -36 -64l-4 -12l4 -24l-12 -4q-45 121 -124 232q-72 136 -72 180q-20 81 -20 184v8q-28 86 -28 164zM116 570l12 -52h4l4 12q-10 48 -16 48h-4v-8z M328 1074h4l4 20l-4 4h-4v-24zM328 1114l8 -8v8h-8zM328 1158l4 -20h4l4 12l-4 24l-8 -8v-8zM416 918h8v8l-8 8v-16zM492 1358h4v8h-4v-8zM504 1406l8 8h-8v-8zM524 838h12v12l-12 4v-16zM764 110l4 -12l8 8l-8 8zM764 126h8v4h-8v-4zM860 1090h8v8h-8v-8z" />
<glyph unicode="H" horiz-adv-x="1087" d="M0 1852l4 4h4q27 -16 76 -28l104 4l116 -28l4 4h36l4 -4l4 4q126 -4 128 -32v-8q-72 -186 -72 -264v-20l-4 -4l4 -12l8 -116h-4l4 -4v-48l-4 -4l4 -4v-4l-4 -4l4 -4v-4l-4 -36l4 -4v-4l-12 -60l4 -4l-8 -56l12 -4l92 12q51 0 72 -40l12 -4l68 12l-8 140h4q-8 64 -20 76 l4 4l-8 24q3 28 8 28l-4 4v4q20 82 32 212l-8 28l4 4v4q-4 24 -12 24l4 24l-4 60q0 16 20 16v4l20 -4h28l-8 12v12l16 20h28l12 4l20 -4h48l104 12l80 -16h32l20 4l4 -4v-12q-31 -43 -60 -192l4 -24q-24 -78 -52 -244q0 -14 44 -56v-28l-8 -36l4 -4v-4l-20 -100l4 -12l-4 -4 v-4l4 -4l-8 -48l4 -12h-4l4 -4v-8l-20 -32l4 -4l-8 -52l8 -52l-4 -16l8 -60h-4l4 -4v-20l-4 -4l4 -4v-4l-4 -12l4 -16l-4 -12l4 -36l-4 -56l12 -124l-28 -168l8 -24v-4l-12 -12h-8q-8 0 -16 48l-20 32v16l4 40q-12 3 -20 28l4 4v4q-8 64 -20 64h-4l-44 -112q0 -71 -28 -192 l4 -4l-4 -20v-4l4 -4v-4l-12 -8q-8 0 -16 36h-4q-32 -102 -32 -140l4 -24q-5 -28 -12 -28l-8 20l4 12l-4 20v28l-8 8l4 4v12l-8 44v8l4 4v4l-8 8l4 16l-4 36v12l4 24l-4 20l4 4l-20 88h4l-8 40l4 4v4l-8 32l4 4l-8 8l4 16l-4 4h-4l4 4l-4 40v44l4 16l-4 12h4q-11 75 -20 84 l12 32q-18 95 -24 96q-51 0 -80 -40q-23 20 -36 52q-45 20 -72 20h-36l-4 4l-24 -8l16 -88q-52 -119 -52 -204l-4 -12l4 -12q-20 -78 -28 -168l8 -36v-8l-12 -4l-16 32l4 4q-12 0 -12 20h-4l-4 -80v-16l-4 -4l4 -4q-5 -78 -12 -96l4 -4l-12 -88l4 -20l-4 -4h-4l-12 12v52 l4 4v4q-5 0 -20 64l-4 4h-8q-11 0 -24 -116h-8l-4 20l4 4v4l-8 20h4l-20 64l4 4v4l-16 80l4 4l-8 8l8 12q-11 0 -20 92h-4l-32 -76l4 -4q-8 -52 -16 -52l-12 40v8l4 4l-4 4v36h-8q-8 -64 -16 -64h-8l-4 24l4 4l-8 8v4l4 24l-8 16l4 20v44l4 4l-4 4v76l8 8l-4 4l4 20v28 q0 47 -16 96l4 4l-4 4v8q1 28 8 28l-4 4l12 72v20l4 4l-4 4l4 12l4 128l-8 80h4l-4 4v4l4 64q0 35 -32 68l-4 12l12 84l-4 4l8 112h4l-4 4l4 68v64l4 4l-4 4l4 28v24l4 4l-4 4l4 48v20l4 4l-28 104q-10 0 -24 84zM44 1372h8v4h-8v-4zM100 332h8v12h-8v-12zM128 692h4v8h-4 v-8zM192 152h12l4 16l-12 16v-8h-4l4 -4v-12l-4 -4v-4zM304 768h8v12h-4zM320 1328h8v4h-8v-4zM324 1364l12 12h-4l-8 -8v-4zM716 152l4 -4h4l4 12h-4zM716 188h12l-8 8l-4 -4v-4zM748 724l4 -4h4v12zM804 384l4 -12h4l4 20v4h-4q-8 0 -8 -12zM812 1692l8 8h-8v-8zM920 1504 h4v8h-4v-8zM980 1248h8l-8 8v-8z" />
<glyph unicode="I" horiz-adv-x="569" d="M0 897q5 34 16 34l-4 4q8 75 28 123l-4 4l40 183q-14 340 -36 340l-40 172h4l-4 4v30q38 -15 156 -38l48 8l4 -4q53 0 140 37l80 45q19 15 44 15v4l20 -4h28l4 -3l4 3h36v-7q-69 -67 -88 -161v-19l28 -26v-4l-20 -29l4 -4v-4q-24 -54 -44 -127v-22q0 -60 -20 -154l4 -4 l-16 -67l4 -71v-30l-4 -3l4 -4l-4 -19v-30q2 -27 12 -37l-4 -19v-7q0 -75 -8 -75l4 -4v-60l-4 -15l4 -3q-16 -99 -16 -146q3 -60 12 -60l-4 -19v-22l12 -52l-8 -42l4 -3l-4 -19l4 -15v-7h-4l8 -116l-4 -4v-4l4 -22v-4l-12 -11h-4q-13 66 -24 78l4 4h-8v-101l-4 -4l4 -3v-30 l4 -60q-24 -27 -44 -187h-8l-8 37v8l4 4l-8 18h4l-36 97l4 4l-8 8h4l-4 3v15l-8 64h4l-4 4q4 37 12 37l-12 30v11l4 4l-8 22q-19 -22 -32 -22v-4l-12 -101v-30l-8 -7q-9 0 -32 105h4l-12 26l4 41l-4 4v3l8 49q-5 29 -28 56l-20 -7q-24 47 -24 63v8h-8l-24 -68l4 -41v-4h-4 q-9 2 -44 128l-4 22v41l4 4l-4 4v7l4 49l-4 30h4l-4 11l12 22q-31 142 -44 142zM16 908l8 8h-8v-8zM44 1753l20 -3h8v3l-24 4h-4v-4zM104 920h12v3h-12v-3zM120 1073h8v11h-4zM152 508h4v8h-4v-8zM284 314h8v8h-8v-8zM288 265l4 -3h4v11zM320 744h4v7h-4v-7zM340 150l8 7h-8 v-7zM504 1798l8 8h-8v-8zM512 1813l16 19v4h-12z" />
<glyph unicode="J" horiz-adv-x="1024" d="M0 1009v12q0 12 124 24l4 4h4l28 -36l12 -7l136 15v-4l56 8l4 -4h4l28 12h8l12 -12l-20 -105l4 -4v-4l-4 -4l4 -4v-4l-4 -12l8 -62h-4q11 -40 16 -110q29 -64 56 -82q69 21 76 90q-16 84 -28 239v74q0 59 -36 145q-44 33 -44 47q64 128 64 176q-19 31 -40 137l4 11l-4 16 l4 12q-4 64 -20 105l-4 32l4 4q-8 0 -12 31l-24 23v4l4 4l-4 4v4l4 4l-4 4v8l84 -20h44q90 0 184 51h48l4 -4l4 4l20 -4h8l20 4v-4l4 4h12l4 -4l4 4h8q15 -12 36 -12h24l36 8l4 -4v-4q-80 -98 -80 -121v-12q25 0 44 -35v-4q-20 -54 -20 -90h-4l4 -4l-20 -113l4 -24h-4l4 -4 v-4l-8 -125l-4 -15l4 -4l-4 -20v-98l-4 -23l4 -12h-4l4 -4v-4l-4 -4v-4l4 -3l-8 -71q8 -7 16 -74h-4l12 -51l-4 -4v-4l4 -4v-4l-4 -4l8 -43h-4l4 -4l-8 -82l4 -19l-4 -4v-4l4 -4v-4l-4 -23l4 -4v-4l-4 -4v-4l8 -24q-5 -19 -12 -19l-20 27v20l4 4v4h-12l-12 -47v-28l-4 -4 l4 -4l-4 -19l4 -20l-8 -8v-7h4q-6 -79 -16 -79l4 -3l-24 -106l4 -4v-8q-12 -35 -16 -90q-16 -102 -24 -102l-8 8l4 4v4q-9 0 -12 47q-25 0 -44 121l4 4l-8 8q-45 0 -152 -278v-70l-8 -8h-4l-8 8v31l-4 24l4 19l-12 12l4 4h4l-12 15q-21 -64 -36 -74q-8 0 -12 24h4l-16 62 l4 24q0 17 -32 101h-4q-32 -55 -32 -137v-31h-8q-8 0 -24 86q-8 2 -16 39l-20 4q-7 -43 -16 -43q-11 0 -16 39h4q-4 29 -20 47l4 4q-13 94 -40 94q-50 90 -56 90h-4l-12 -55h-16v8l4 4v4l-8 8v12l-8 66h4l-20 70l4 12q-32 213 -92 384q-13 28 -40 54zM116 1044h12v8h-12v-8z M352 428h4v8h-4v-8zM396 252q8 0 12 28h-8l-4 -20v-8zM460 1256l8 -8h4v8l-8 8l-4 -4v-4zM552 1740l4 -28h4v8h4l-4 28zM556 1708l8 -68h8v4q-3 64 -16 64zM568 1620l8 -8v4l-4 20h-4v-16zM576 1580h4v12h-4v-12zM700 1504h4v8h-4v-8zM704 1472h4v8h-4v-8zM704 1568h4v8h-4 v-8zM704 1592h8l-8 8v-8zM704 1620h8v4h-8v-4zM732 1852h8v4h-8v-4zM776 816l12 -8v36h-8zM828 540h4v8h-4v-8z" />
<glyph unicode="K" horiz-adv-x="1199" d="M0 1803v4l8 8l8 -8l92 4l104 -4l12 4v-4l4 4q42 -4 96 -24l36 24h24q43 0 124 31l36 8l4 -4v-4l-32 -66l4 -4l-8 -55v-20l4 -12l-4 -19v-35q-36 -193 -36 -298l4 -71h8q3 37 52 82l56 79q20 49 20 94q-20 2 -20 35l52 71q34 74 48 74l-8 8q8 15 8 43v16l4 4l-4 4v4l16 43 l-4 15l20 12q203 -43 280 -43l4 -4l8 8l32 -4q0 8 48 16v-4l4 4h20q33 -28 60 -28v-4q-132 -145 -152 -203q-10 -35 -48 -71q-84 -103 -84 -133l4 -24q-29 -13 -64 -59q-106 -79 -124 -117v-4q37 -32 92 -231l-4 -4q13 -2 32 -79q10 0 20 -39q10 0 20 -27q27 -32 60 -55 l12 -27h-4q7 -34 40 -106q14 0 36 -200l-12 -8h-4q0 12 -12 12v15h-8l-4 -54q0 -114 40 -267h4l-20 -129v-27l4 -28l-4 -4h-8q-12 0 -32 106q-88 221 -112 305q-16 0 -44 142h-4l-4 -55l8 -47v-16q-24 -12 -24 -94q-2 -47 -12 -47h-4l-12 35q0 20 -28 82l4 4l-24 51l4 4v4 q-9 31 -52 106l-16 24q-36 43 -36 113l4 4v4l-12 67l4 11q0 19 -36 83q-31 77 -44 82q0 -11 -40 -16l-4 -15l4 -4v-4l-4 -4l8 -39l-4 -4l4 -20v-19l-4 -4l4 -4v-4q-2 -51 -8 -51l8 -35l-8 -40l4 -4v-15l4 -47h-8l8 -63h-4l4 -4l-4 -47v-63l-8 -7h-4l-12 39l4 4v4l-20 54 q-12 0 -28 -121l-4 -51l4 -4v-4l-4 -27l4 -12h-4l4 -4v-47l8 -31v-4q0 -28 -8 -28l4 -4v-3l-16 -71l4 -4v-4l-8 -23l4 -12l-8 -43l4 -4v-4q-6 -15 -12 -15h-4l-12 46l4 4l-8 8h4q-14 63 -36 63l-8 55l4 4l-4 3v8l4 24l-12 23l-32 -39l-8 8v4l4 4l-4 4v11l4 12l-8 83l4 43 l-4 4l4 3h4l-4 4v8l4 20q-8 0 -8 19l-28 -35h-12l-4 4h-4q-31 -94 -44 -114h-4l-8 24l4 23l-4 4v4l4 4v4l-4 4v4l4 20l-4 11l4 4l-8 8l4 4l-8 43l4 4l-4 4h-4l8 16l-4 23l8 8l4 -4l4 12l-8 8v4l4 3l-4 4v20l8 67l-4 39h4l-4 4v35l4 4l-4 4v4l4 4l-4 4v43l4 4l-4 4v11l4 4 l-4 4l4 20v11q0 24 -28 122h4l-4 4v8q12 12 12 74q0 23 -40 71l4 47l-4 98l4 133l-40 102q-8 0 -16 39l20 98l-4 4v4l4 23l-4 12h4q-11 93 -76 188q-16 0 -16 12zM176 510l4 -12h4v16l-4 -4h-4zM180 486h4v8h-4v-8zM288 196l4 -15h4l4 15h-12zM288 286h8v4h-8v-4zM384 36h4 v7h-4v-7zM404 717h8l-8 8v-8zM424 1729h12l-8 7h-4v-7zM520 1258h4l8 8v8h-8zM540 1254h4v8h-4v-8zM728 1819h8l8 7l-12 4l-4 -4v-7zM748 1337l8 7v4l-8 -7v-4zM768 282l8 8h-8v-8zM880 1403h8v4h-8v-4zM1000 1556q12 4 12 24q-8 0 -12 -24zM1020 1595h4l4 16q-8 0 -8 -12 v-4z" />
<glyph unicode="L" horiz-adv-x="944" d="M0 1726v9q0 19 116 29l60 8l12 -4l24 4v-4q110 21 216 54l84 13l4 -4v-9q-76 -132 -76 -192l4 -4l-8 -83l4 -13h-4l4 -4v-4l-4 -17l8 -8v-8l-4 -5q20 -40 40 -200h-4l4 -4v-13q0 -6 -28 -20l-20 -42l4 -4v-25q0 -30 -8 -30l4 -4l-8 -67l32 -112h4l-8 -188h4l20 -4l4 4h4 l56 -4h20l4 -4l4 4h12l4 -4l4 4h4l4 -4q304 73 304 100h16v-9q-40 -97 -40 -183l12 -25l-4 -42l8 -184l-4 -21l4 -20l-8 -184l4 -4v-4q-4 -46 -12 -46l-24 58v59l-8 58h-4l-8 -8v-17l4 -13l-4 -20v-21l-4 -130q8 -14 12 -71q-7 0 -16 -37l4 -4l-4 -21v-8h4l-4 -17l4 -88h-8 l-8 17l4 4v5q-12 0 -12 8v12l4 5v4l-32 50q-18 0 -28 104l-36 125l4 4h4l-12 92v4h-8q-6 -88 -12 -88l4 -4l-12 -62l4 -13l-4 -4v-4l4 -4l-8 -46l4 -4q-3 -51 -12 -51l-8 25h4q-10 21 -20 80l4 4v4l-12 42h-12q-12 0 -12 -34l-8 -37l-4 -4h-8l-8 21l4 4q-28 89 -28 112h4 q-8 50 -36 88v4l4 4v5l-32 25q-12 0 -68 -88q0 -17 -16 -25h-8v4l4 4v5l-44 41q-9 -46 -16 -46l4 -4v-4l-12 -88v-29l-4 -4l4 -4v-4l-4 -13q-11 0 -24 50l4 4q-32 45 -32 75h-8q-7 -70 -16 -70l-12 29l8 8q-15 0 -20 63l4 4l-4 4l4 4h4l-4 4v9l4 4l-8 50h-16q0 -16 -40 -38 l-36 -37q-18 -52 -40 -75q-16 -40 -24 -92l4 -13l-4 -4h-4q-15 0 -40 184l-8 8q1 21 8 21l-4 4q8 108 40 297v37l4 17l-4 4l4 33l-4 30l8 16l-4 13l8 83l-4 13h4l-4 4l4 21q0 50 -28 167h4l-20 54h4q-10 25 -24 25v4l4 4l-4 5v16l4 21l-4 25q20 125 20 217l-4 4v5l12 4 l-8 12l4 188q0 60 -32 75zM40 1259h8v8zM68 207h4v9h-4v-9zM120 408l8 8h-8v-8zM160 733h4l4 25h-8v-25zM180 1701q0 -24 20 -41l4 25l-4 16h-20zM308 207l8 -8l4 4l-4 13zM308 228l8 8h-8v-8zM324 182l8 -8h4l-12 12v-4zM340 1176h8v4h-8v-4zM388 307h12v9h-12v-9zM412 403 h4l16 13l-16 4l-4 -4v-13zM440 904h4v13h-4v-13zM452 1276h8v12h-8v-12zM452 1317h12l-4 17l-8 -8v-9zM592 182h12v4h-12v-4zM664 95h4v8h-4v-8zM760 412h4v8h-4v-8zM872 320l4 -13h4v13h-8zM872 324h8l4 17l-4 4h-4l-4 -4v-17z" />
<glyph unicode="M" horiz-adv-x="1276" d="M0 1752v20h12q30 0 32 12v8q-12 15 -12 28v32q101 -39 188 -88l64 -4l96 12l4 -4h4l60 12l8 -12v-44l4 -24l-4 -16q39 -284 56 -284q0 -26 36 -84l8 -28l-8 -56q6 -180 24 -180h4q21 140 32 140l-4 4v4l32 120h4l-4 4v4l8 48l-4 16h4l-8 20q7 25 52 100l20 48l-4 4v12 q0 25 16 80v8l-4 24l4 4v4l-4 24h4l-20 100v4l8 8h12l24 -4l12 4q113 -13 116 -20h4l68 12v-4l4 4h60l4 -4q15 4 40 28l64 24q7 -16 28 -16l20 4v-4l4 4h4q28 0 28 -8l48 8l4 -4v-8q-27 -55 -48 -160l4 -4v-16q-20 -21 -20 -36v-80l4 -24l-4 -4l4 -16l-4 -100h-4l8 -40 l-8 -48l8 -88h-4l32 -140q12 -4 12 -24q-16 -23 -32 -120l4 -4q-20 -72 -20 -104l12 -224l-4 -16l4 -16v-16l-4 -12l4 -20v-36l-8 -8h-4q-20 19 -20 52l4 4q-24 14 -24 36v12h-8l-4 -24l4 -4v-4l-4 -24l4 -16l-4 -28l4 -12h-4l4 -4v-64l-4 -4l4 -12l-4 -24v-8h4l-4 -40v-100 q0 -87 8 -128h-4l8 -48l-4 -4h-8q-9 0 -16 36l4 4q-5 24 -12 24h-4l-4 -72l4 -20l-4 -4h-8q-48 94 -48 124l4 12q-20 23 -20 76l4 4v4l-44 200l4 4v4q-5 24 -12 24q-7 -12 -16 -120q-27 0 -32 -140l-4 -4h-4l-36 116l4 4v4q-15 64 -20 64l4 28v20l-8 12l12 104l-4 4v4l4 4v4 l-4 4l16 184l-8 52h4l-4 4v4l-4 188q-20 46 -20 72h-4l-40 -136v-4l4 -4l-8 -120h-4l4 -4v-12l-4 -4l4 -4v-32q-56 -49 -56 -156l4 -4l-4 -20v-64l-4 -4l4 -4l-8 -52l8 -36h-4l4 -4v-4q-12 -38 -20 -124q-8 0 -8 -52l-4 -4h-12l-60 204h-4l-28 -204l4 -4v-4l-4 -12l4 -20 l-4 -4h-8q-8 0 -12 36h4q-8 11 -12 56l4 4q-6 0 -16 32h-4q-8 -36 -16 -36q-22 0 -32 116l4 4q-8 0 -12 32h4l-56 176q0 24 -28 60l-4 24h4l-4 4v12l4 4l-4 4v24l4 4l-4 4v4l4 48l-4 28h4l-56 236h-4v-24l8 -24l-4 -4v-4l4 -12q-16 0 -44 -156v-20q1 -26 28 -80v-8 q0 -28 -8 -28l4 -4v-4q-8 -13 -12 -64l8 -52h-4l4 -4v-4l-4 -4l4 -4v-44l4 -16l-8 -16l4 -16l-8 -104v-52l-8 -8q-12 23 -28 112l-12 -8l4 -4v-4l-8 -40l8 -36l-12 -112l4 -16l-8 -32l4 -40l-12 -84l4 -4v-12l-4 -4l4 -4v-40l4 -16l-4 -4v-4l4 -12l-4 -4h-4q-6 17 -32 36 q0 23 -28 88l4 4q-5 21 -16 28l4 12q-9 152 -24 196h4q-8 67 -36 136h-4l-16 -96l4 -4v-4l-8 -28l4 -32l-4 -4h-8l-8 8l4 12l-4 4l4 4q-12 0 -12 32h-8l-12 -100l4 -36l-4 -4h-12l-4 20h4l-20 92h4l-4 4v4l4 4l-4 4v4l-8 100l8 32l-8 52l4 4l-8 120l4 16l-4 12h4l-4 4v36 l4 4l-4 4v64l4 16l-4 4v4q6 136 12 136l-4 4l4 20v24q0 21 -28 40h4l-8 32l4 4v4l-4 4l4 20v28l4 4l-4 4v4l4 4l-4 4v16l4 4l-4 4v4l8 60l-4 4v4q8 21 8 84v136l-16 244q-17 46 -32 60zM684 376h4v12h-4v-12zM764 724l12 16h-12v-16zM1084 56l12 4v4h-12v-8zM1120 1712h4v12 h-4v-12zM1172 1632h4v8h-4v-8zM1204 1072h4v12h-4v-12zM1216 1824h12v8h-12v-8z" />
<glyph unicode="N" horiz-adv-x="929" d="M0 1184v4l4 60l-4 28h4l-4 4v4l12 76l-4 4v8l4 16l-4 12h4l-4 12l4 4l-4 20v40l4 4l-4 12l4 112h4l-4 4v8l4 4l-4 4v64l-4 36l16 28l4 -4h24l92 8v-4l4 4h4l32 -8q20 12 116 24l20 -8q32 5 32 16h12l8 -8q-20 -81 -24 -140q0 -10 92 -148q7 -7 12 -48h-4l4 -4v-20 q0 -41 16 -104l-4 -4l8 -8l-4 -4v-4q10 0 28 -108v-12h4q14 0 48 192l4 64h4l-4 4v76l-4 16l4 4l-8 68h4l-8 48l4 4q-8 39 -8 104q-11 0 -28 56q6 16 12 16l4 -4l4 4l28 -4l16 4l40 -16l36 8l32 -4l40 28l20 -4l116 8l12 -4l24 8v-4l4 4h4l8 -8v-8q-73 -154 -80 -212v-36 l-4 -4l12 -52q0 -20 -8 -20l4 -4v-4q-5 -32 -12 -32l4 -4v-8l-4 -4v-4l12 -4l4 4q8 0 20 16h8v-4l4 -16q-20 -77 -32 -96l4 -12q-12 0 -20 -108l4 -16v-8l-4 -4l8 -28q-8 -39 -8 -116v-20l-4 -16l4 -12l-4 -4v-4l4 -12l-4 -20l4 -16l-4 -28l4 -16l-4 -4v-4q4 -46 16 -60 q-16 -97 -48 -204q0 -62 -8 -80q12 0 12 -44v-76l8 -12v-4l-8 -24l12 -92l-28 -104l4 -4v-4q-3 -28 -8 -28l4 -12l-12 -16q-6 0 -24 88l-4 4v4h4l-48 96l-4 -32l4 -4l-28 -204l-4 -4h-4q-12 11 -20 64h-4l-4 -28l4 -4l-4 -20l8 -88l-4 -4h-4q-8 0 -8 20h-8l-28 116h4 l-40 156q0 25 -92 228q-12 49 -56 92v12l4 16l-4 4v4l12 40l-4 4q8 28 12 108q-50 95 -112 276h-8l4 -12l-4 -32l12 -80v-12l-4 -4l4 -4l-4 -20l-4 -140q13 -108 36 -108v-4l-44 -112q-15 -44 -32 -188l4 -4v-4l-8 -40l4 -4v-36l4 -48q-20 -5 -20 -116l4 -4v-4l-4 -12l4 -56 l-4 -4h-4q-8 0 -16 48l4 4q-11 9 -36 104q-10 0 -20 184h4l-28 88h-8q0 -28 -8 -28l4 -4l-16 -84l4 -12q-9 0 -12 -48l4 -12l-12 -16l-20 56v8q0 47 -8 64l4 4v4l-4 12h-4l-16 -40h-8q-13 0 -20 76l4 16v28l4 4l-4 4l4 12l-20 136v8l4 4l-4 4q12 193 32 340q0 47 -48 192z M200 200h8v16h-8v-16zM308 1668h4v8h-4v-8zM716 1808h8v8h-8v-8zM760 1812h8l-8 8v-8zM764 1760l8 -8h4v8h-12zM860 1804l12 -8h4l4 20h-8z" />
<glyph unicode="O" horiz-adv-x="951" d="M0 732l8 36l-4 4q3 24 8 24l-4 4v4q8 12 24 144v24q0 96 -12 116l4 4v4q-12 0 -24 160v12q0 31 68 220l16 48q0 47 12 64h-8v24q57 41 108 92l80 56q15 0 100 60h4v-4l36 8q28 0 188 -56l20 -4l28 4l68 -8l16 4q51 -17 72 -52l84 -176q12 -19 20 -112l12 -40 q-8 -89 -20 -124l4 -4q-7 -68 -16 -68q-6 0 -12 16l4 4v4l-4 20l8 8q-9 0 -16 56q-9 0 -20 -64l4 -4v-24l-4 -4l4 -4v-4l-8 -84l4 -12l-4 -12l4 -4v-4l-4 -4q13 -100 44 -168l-40 -104q-80 -261 -80 -296l8 -16q-32 -115 -32 -136v-32l-8 -8q-6 0 -36 52l4 4l-20 84h-8 l-76 -72q-53 -99 -68 -152h-8q-5 0 -32 60h-4q-13 0 -76 -136q-9 -36 -20 -36h-12l-4 12l4 4v4l-4 16l4 4l-32 124l-12 -4v-4q0 -40 -8 -40l4 -4l-16 -120l-4 -4l4 -36q-10 0 -20 -76l-4 -4h-4l-8 12l4 16l-28 76q-24 138 -80 216q-80 90 -100 188q-16 31 -40 140 q-36 63 -36 76l4 4l-4 4h-4zM24 1340h8v4h-8v-4zM188 1084l8 -36h8l-4 4l4 20v4l-12 12zM300 1280q20 -54 28 -244l-4 -20l8 -156l-4 -4l4 -4h4l-4 -20q0 -27 76 -92q16 -36 36 -36q61 43 104 124q28 54 72 272l4 52l-4 4l4 20v32l-4 28l-16 -8l4 -4v-4q-76 -115 -76 -128 q0 -21 -12 -24h-12l-8 44h4l-4 4v4l4 20l-8 72h4q-16 114 -60 180h-8q-28 -60 -36 -100h-4q-16 0 -20 92l4 4l-8 8h4l-4 4v4l4 12h-12q-40 -67 -60 -136zM404 1656h12v8l-8 8l-4 -4v-12zM448 1412h4v12h-4v-12zM720 396q8 0 8 -12h4v4l-4 12l4 12h-12v-4l4 -4v-4zM908 1372 h4v8h-4v-8z" />
<glyph unicode="P" horiz-adv-x="906" d="M0 1835l4 16q171 -15 192 -52h48l4 -4l56 12v-4q11 7 116 12l4 -4h4l24 4h4l12 -8l84 20l16 -4q36 0 80 12h4l64 -88q88 -23 88 -52l48 -88q16 -30 28 -120v-72l-8 -8l-4 4l-20 40v4l4 4v4l-4 4h-4l-4 -32q4 -44 12 -44l-8 -76l4 -12h-4l4 -4v-4l-4 -16l4 -4v-4 q-4 -48 -12 -48l4 -4v-4q-128 -241 -128 -304h-16q-6 0 -16 52l-4 4l4 4v4q-8 16 -12 64h-4q-44 -68 -44 -104h-8q-9 1 -36 96l-12 4q-80 -6 -80 -32l24 -140h-4l8 -28h-4l16 -56q-24 -45 -52 -192l4 -4l-8 -72l4 -4q0 -25 -36 -160l-4 -24l4 -16v-4h-8q-24 34 -40 112 q-13 0 -48 -168q-12 -26 -12 -48l4 -16q-18 -80 -36 -104l4 -4v-4l-20 -100l4 -12l-4 -4l4 -4l-4 -4h-4q-23 0 -40 224l-8 56l4 4l-8 8l4 4v4l-8 32l4 16l-4 12h4l-4 4v12l4 4l-4 4v12l4 4l-4 4v32q0 94 -16 188l4 4v4l-12 68h-8l-16 -76l4 -4q-12 -73 -40 -140 q-7 -72 -16 -72l-12 16h4l-8 24l4 4q-12 0 -20 72l-4 4l4 4l-4 20q16 86 16 136l-16 92l4 4v4l-4 4l4 20v40l4 4l-4 4l4 20v84l4 4l-4 4v20l8 128l-16 100l36 172l-4 12h-4q-15 -31 -40 -52h-20q1 20 8 20l-8 16l16 60l-4 40l4 4l-4 4h-4l8 60l-4 12h4l-4 4v4l4 60l-4 28h4 l-4 4v40q0 68 -28 112q-13 48 -28 64l4 4h-12zM76 1335h8v8zM76 1431l8 -8v8h-8zM284 1703l24 -8v12l-20 4l-4 -4v-4zM456 1247l4 -4q200 34 200 128v76q-3 110 -100 124q-100 -3 -100 -8l-4 -20q3 -22 48 -44v-8q-48 -114 -48 -244zM464 1667l8 -8l4 4v8h-12v-4zM484 927h4 v12h-4v-12zM492 879h4v8h-4v-8zM716 1443h8v4h-8v-4zM752 1087h4v12h-4v-12z" />
<glyph unicode="Q" horiz-adv-x="1011" d="M15 793l4 12l-4 24l4 36l-4 4l4 16l-4 60l4 20l-4 12q0 53 56 152q40 126 40 216v12l-12 52q11 0 76 88q60 92 60 164h4l-4 4l16 72l-4 4v48h4q36 -2 36 -8l20 4l84 -4l44 12l52 -8l56 8v-4l4 4l28 -4h28l12 -8h4l12 8h48q68 0 68 -60q12 -28 32 -128l-4 -4v-4 q40 -104 40 -132q6 0 24 -52q40 -60 60 -120q14 -63 52 -136q-31 -45 -52 -132l-44 -204l4 -92l-36 -116q60 -158 60 -196l28 -184q28 -76 28 -160h-4l4 -4v-64q0 -34 12 -48v-12l-8 -8q-16 8 -16 24l4 4q-40 18 -40 64l-44 116q-16 35 -40 128h-8l-4 -52l32 -120v-4l-4 -24 l24 -72l-4 -4h-4q-66 84 -76 84v-4l4 -20l-4 -4q10 0 16 -32l-4 -20h-8q0 11 -56 80q0 24 -92 152q0 24 -52 68l-80 20l-4 -4h-32q-44 0 -44 -20q-32 -95 -44 -156l4 -12l-4 -4h-8l-8 8v4l4 4l-24 64h-8l-24 -72h-4l-28 60q-63 124 -116 204q-27 26 -40 60q-50 50 -64 120 q-20 69 -20 100v60l-4 20h4zM91 669l20 -88h-4q16 -48 40 -48v8q-47 129 -56 136v-8zM191 1361h16l-12 12l-4 -4v-8zM267 1721h4v8h-4v-8zM279 849q28 -124 100 -272q45 -16 80 -16v4q-32 60 -68 188l4 4q-6 0 -36 52v8q8 0 20 16h12l100 -24q22 2 68 52q29 32 84 32l4 4v28 l-4 176q-20 46 -36 116h-4q-54 -100 -64 -100l4 -4v-16l-8 -8h-4l-4 24l4 4h-8q0 17 -12 36l8 16l-12 84l4 24v20l-4 20q-9 0 -28 -76l4 -4q-7 0 -12 -20q-16 0 -16 -32l-12 -8q-25 0 -40 96l-4 4q-12 52 -24 52q-13 -75 -24 -96l4 -4v-4q-64 -231 -64 -284v-12l-4 -4l4 -4 v-4l-12 -56l4 -12h-4zM291 173l8 8h-8v-8zM343 209h4v12h-4v-12zM531 1149l8 8h-8v-8zM667 217l12 -12v4l-8 8h-4zM683 189h4v8h-4v-8zM759 81h4v8h-4v-8z" />
<glyph unicode="R" horiz-adv-x="1121" d="M0 1780l4 4h4l20 -24l12 8q53 -4 80 -16l4 4h4q28 -3 28 -8l4 4h4q70 -10 92 -24l40 8v-4q11 8 36 8q0 8 32 8l4 12l-8 24v8l8 8l60 -8l24 8l12 -4l12 4v-4q116 32 188 60h12l12 -4v8h4l20 -4v8h4q73 -92 80 -92q0 -30 80 -44q45 -32 108 -60q14 -17 32 -100 q44 -59 44 -104l-4 -16q0 -15 36 -72q-52 -193 -52 -216q-32 0 -64 -40q-16 0 -120 -72q-36 -2 -36 -8l-20 4h-12l-28 -4v-8l56 -68q29 0 128 -116q14 -18 72 -36v-8q24 0 24 -16l4 -88v-20l8 -36q-20 -102 -20 -152l4 -16l-4 -16v-8q8 -9 16 -60l-16 -84l4 -4v-4l-4 -4v-4 l4 -24l-4 -4v-4l4 -4l-4 -12q0 -36 16 -60v-16l-4 -4l4 -4l-4 -16q16 -108 36 -128v-8l-8 -8l-84 100q-10 40 -48 92q0 27 -12 44l4 4v4l-92 180v8l4 4v4q-11 0 -16 32h-8l-4 -40v-72l12 -52l-4 -4h-4q-36 45 -36 60l4 4l-28 24l-4 -4v-20l4 -16l-4 -4l20 -84v-8h-4 q-17 0 -52 116l-24 44q-22 0 -28 40h4q-14 63 -32 104l4 4h4l8 -8h4q-16 124 -56 176q-60 82 -60 108h-4q-12 0 -28 -152v-28l4 -24l-20 -76l4 -4v-4q-11 -36 -20 -136l8 -48l-4 -4h-4q-7 0 -24 56h4l-20 60l4 4h-12l-8 -60l4 -4v-4l-28 -248q-16 -2 -16 -12v-4l-4 -100 l4 -24l-4 -4h-4q-20 26 -44 140l-8 56l4 4v4l-12 64h-8l-24 -72q-16 5 -16 36v12l4 4l-4 4v4l4 4v4l-4 16l4 24l-4 12h4l-4 4l4 28q0 36 -32 136h-4l-4 -4v-52l-32 -24l-8 -64l4 -4v-4l-4 -16h-12l-20 100h4l-8 32v20l4 24l-4 20v4l4 4l-4 4v8l4 4l-4 12q0 134 -32 240h4 l-4 4v4q1 28 8 28l-4 12l16 144l-4 4v4l16 132l-4 12h4l-4 4v4l4 4l-4 4v4l4 4l-8 36l4 4v4l-8 28l4 4q-7 0 -28 144l-76 272q-6 0 -44 108zM104 1536h4v8h-4v-8zM248 536h12l-8 8h-4v-8zM360 100h12l-8 8l-4 -4v-4zM456 472h4l4 16h-8v-16zM456 1776h16v4h-16v-4zM472 1532 q0 -63 28 -108l4 -28q-8 -21 -8 -84q0 -50 28 -148h8q89 70 120 72l4 -4l56 44q0 8 32 28l12 36v32l4 4q-22 140 -48 140q0 24 -16 36q-76 -135 -76 -156h-12q-6 0 -20 28l8 12l-8 28h4q-8 55 -32 92q-19 -62 -28 -64q-11 15 -24 104l-4 12v12q-32 0 -32 -56v-4l4 -24z M680 1836l16 -4v12l-16 4v-12zM696 472l8 -8v12h-8v-4zM700 1840h8v4h-8v-4zM816 948h4v8h-4v-8zM960 1188h12v12h-8zM976 1144h8v8h-8v-8zM976 1204h4l8 8v4h-8l-4 -4v-8zM1000 1248h4v8h-4v-8zM1008 1188h4l8 8v4h-8zM1020 768h4v8h-4v-8z" />
<glyph unicode="S" horiz-adv-x="1021" d="M0 1307l4 4v4l-4 3v4l4 12l-4 4l7 57l-3 4l7 38l-4 4v8l82 160q63 115 125 115l19 -4h44l44 -4q45 24 71 69l70 8v-4q14 8 40 8l15 -4q123 38 237 38q72 19 147 27l8 -8l-11 -42l3 -4v-3l-7 -35l4 -4v-4q-15 -38 -15 -118v-42l11 -42h-4q15 -44 22 -157l-3 -4v-4l3 -4v-4 l-3 -11l7 -42h-4l4 -4v-11h-4l-18 3q-6 0 -11 -153h-4l4 -4v-3l-4 -4v-4l4 -4l-4 -27v-30l-7 -8q-10 0 -19 54q-11 0 -11 -50h-3l3 -4v-8h-3q-71 88 -71 154h4l-18 145h-8l-4 -31l4 -11h-4l4 -4v-8q-29 -27 -29 -84l3 -11l-3 -4h-11l-8 23l4 4v4l-33 38q0 30 -26 111 q-15 -4 -15 -23l-11 -8q-13 0 -19 42h-7q-19 -59 -33 -72l-85 141l-4 4q-51 0 -96 -57q-44 -52 -44 -123q68 -78 148 -99l36 3q19 0 85 -53q22 0 78 -54q17 -4 74 -69q109 -48 199 -149q41 -47 41 -76q-3 -58 -7 -58l11 -50l-4 -3v-4l4 -12q-23 -164 -30 -176l4 -4v-38 l-11 -11l-8 23l4 3v4q0 30 -18 50q-23 -18 -23 -130q-6 0 -22 -176q-11 0 -15 -88l4 -12l-4 -3h-3l-8 22q-18 0 -18 31l-4 15q-20 0 -29 77q-6 0 -15 38h-11l-52 -107h-4q0 26 -25 73q-6 0 -12 -16q-22 0 -59 -61v8h-3v-4l3 -11q-9 -2 -33 -65l4 -39q-30 -12 -30 -65 q-11 -16 -11 -38h-4q-9 0 -25 76l3 4l-7 8l4 4v4q-8 0 -11 23l3 3h-7v27l-4 27h4l-4 4v7l4 4l-4 4v4l4 11l-4 4h-4l-29 -61l-4 4v7l4 4l-4 12l4 4v3l-11 27l7 31l-3 4l-4 11h-4l4 12q-5 76 -19 76q-11 -18 -40 -126l-11 -8q0 16 -15 16l-19 57h8v4h-8q-22 -36 -48 -165 l4 -38h-4l4 -4v-19l-22 -45l4 -4l-11 -62h-8l-7 16v38q-11 0 -15 49l-22 54l-22 -15l-8 49h4l-4 4v4l4 23l-4 4v4l4 3l-4 39v23l4 4l-4 3v4l4 4l-4 4v4l4 15l-4 27h-7l-30 -123l-3 -4h-4l4 -3l-19 -73h-7q-33 66 -33 134l3 4q-11 0 -11 11l4 4v4l-4 15l4 4q-11 22 -11 50h3 l-11 49l11 27q-9 9 -22 73h4l-7 34l3 4v4l-3 15l3 4l-3 4l3 19l-3 12l7 15l-4 4l4 27v34l4 4v4q-26 29 -71 149h4l-11 19v12h4q21 -23 37 -23v-4l3 4h4q14 -16 26 -16q11 -27 44 -27q0 -7 30 -11q62 -68 92 -77q0 -13 93 -23q0 -6 66 -19l144 4l33 35v3q-24 36 -37 81l4 4 q-40 76 -92 76l-70 46q-35 38 -82 38l-11 -3v3l-3 -3l-115 15q-12 -31 -18 -31q-16 16 -30 19v4l4 4q-40 40 -74 180q-19 81 -19 126q11 0 15 35q-17 0 -29 53h-4q-9 -46 -15 -46h-7zM159 362h7v3h-7v-3zM284 209h8v3h-8v-3zM403 224h7v11h-7v-11zM428 1720h12l-8 8l-4 -4 v-4zM539 1127l15 -11h4v7l-19 8v-4zM794 1192h4v8h-4v-8zM820 270h4v7h-4v-7zM857 197l7 -8l4 16h-11v-8z" />
<glyph unicode="T" horiz-adv-x="1146" d="M23 1747l4 3q10 -6 89 -14q52 -12 77 -26q104 8 104 29l67 56v7q9 0 11 15l26 4q68 -45 96 -45l4 4l178 -18l11 3l33 -3l52 3h4l3 -3l4 3h41q145 48 185 78q12 0 45 26h7l7 -7v-4l-7 -11l-11 -174h-4q3 -15 19 -30q0 -38 33 -200l-15 -89l4 -4v-3l-4 -37l15 -63l-15 -134 l4 -33h-4q-15 0 -18 30l-4 3h-4l-7 -33h-8l-7 18l4 4l-22 82q-6 0 -15 29l3 4q-6 0 -14 33l3 11l-7 8l4 4v3l-8 8l4 3v4q-9 0 -11 19h-8q-28 -72 -55 -108h-8q0 13 -63 97h-14l-37 -15l3 -19v-15l-3 -3q3 -40 29 -119l-4 -11q0 -138 63 -274v-26l-3 -4l3 -3v-4l-7 -56v-18 l-4 -4l4 -4l-4 -22l4 -67h-4l4 -11l-7 -48v-4l3 -18h-3l3 -4l-3 -26v-15l3 -22l-7 -22q4 -30 11 -30l-4 -26v-14l4 -23l-4 -14l8 -8l-4 -26l7 -7v-15l-7 -30l4 -3v-4l-8 -48l4 -4v-4l-4 -11l4 -11h-4l4 -4v-3l-7 -8q-6 0 -23 82h4q-7 17 -15 18h-3q-14 0 -19 -74h-4 q-11 0 -22 56h4q-13 48 -19 48h-3v-4l-8 -63l4 -3q-13 -110 -22 -119l3 -4v-3l-7 -86v-29l-7 -7h-8v4l4 3v4q-11 0 -22 14h-4l-4 -92v-7h-3q-19 16 -19 41h4q-8 14 -45 244v11q0 82 -11 152h-4q-14 0 -18 -75h-4l4 -3v-45l4 -37l-37 -22q0 -28 -12 -63l4 -26l-4 -4h-3 l-15 30v15l4 4v3q-15 4 -15 41l4 4l-8 7l4 4l-4 18l4 37l-8 49h4l-7 44l3 4l-7 7l4 4l-11 81h3l-7 23l4 33q-21 144 -60 211q-18 5 -18 11v19q21 19 33 159q-58 400 -81 400l-30 -193l7 -29q-4 -19 -11 -19q-5 0 -15 34l4 3l-22 71h-7q-17 -60 -26 -60h-8l-18 126l3 4 q-11 0 -11 41l-11 11q-60 -165 -63 -230q-13 -17 -26 -66h-3l-12 11v3l4 4l-22 100l4 4l-8 7v26l-29 137q0 41 -19 97l4 3v4l-4 15v4l4 3q-7 10 -30 260l4 3v4q-11 30 -15 78zM330 1754h8v4h-8v-4zM353 1765h3l12 11v4q-15 -5 -15 -11v-4zM430 1710h8v7h-8v-7zM542 143 q7 0 7 -11h4v22h-8zM716 43l3 -15h4v18l-4 -3h-3zM857 639h7v8zM886 1713h11q34 4 34 15h-4l-41 -11v-4zM901 1350h7v4h-7v-4zM1060 1121h4v11h-4v-11z" />
<glyph unicode="U" d="M0 1724v4q0 11 88 24q0 5 28 12q32 -28 52 -28q2 -10 64 -24v-4l20 4l28 -4l8 8l4 -4h4l12 4v-4q84 18 124 52q26 8 64 40l8 -8v-4l-4 -24l16 -56l-4 -4v-4q15 -125 32 -176q-32 -32 -40 -88l-24 -64l4 -4v-4q-3 -32 -8 -32l4 -4l-4 -88v-20q1 -40 8 -40l-12 -56l4 -4 l-4 -28v-28l-4 -4l4 -4l-4 -20v-40q0 -90 44 -180l8 -72h-4q15 -136 44 -136l68 40l36 164v8q-14 95 -44 160q40 65 64 168l-16 96l4 48v116q-8 52 -20 80l4 4q0 108 -40 212l24 20l20 -4l4 4h4q24 -5 24 -12l4 4h84l24 -4l152 32l8 16l40 -4h24l4 -4l40 12l16 -4 q-17 -108 -24 -108l4 -4l-12 -176v-12l-4 -4v-4l12 -12v-4h-8v-4q24 0 24 -56q9 -57 44 -100v-4l-12 -16l4 -4v-8q-8 -7 -8 -40q-28 -60 -28 -128l-4 -4l-4 -12l4 -4v-4l-8 -108v-20l4 -24l-4 -20v-4l4 -16l-4 -4l4 -20l-4 -16q17 -156 28 -156v-4q-24 -22 -76 -172 q-18 0 -36 -160l-4 -4l4 -4v-4q-16 -33 -16 -100h-16l-8 52h4l-4 4v4l4 4v4q-12 0 -12 20l-8 20l-4 4h-8q-8 0 -32 -112l4 -4v-16l-8 -8h-8q-13 46 -24 48q-32 -38 -44 -120q-48 -67 -48 -112h-4l-16 48h4l-20 52l4 4q-10 4 -44 108l-4 4h-4l-24 -80l4 -4v-8 q-34 -30 -40 -76l-4 4h-8v-4q12 0 12 -8l-8 -48h-4l-8 8l4 4q-8 0 -12 28l4 4l-8 8l4 4q-15 51 -24 60l4 4q-8 11 -20 80h4l-16 44q-13 0 -32 -152q0 -24 -12 -24l-8 8l4 4q-10 2 -32 72h-4l-16 -12q-17 0 -40 96q-30 34 -72 44l-4 -4h-16q-41 42 -88 128q-7 0 -8 20v4l8 12 q-27 43 -28 68h4l-24 192q-8 0 -8 48h4q-16 111 -40 188q7 0 20 48l-4 4v4q32 62 44 136q-11 37 -32 56q-12 4 -12 24l4 4v4q-8 0 -8 32h-4l4 20q0 104 -60 336zM204 888l8 -28l8 8l-4 4h-4l4 20v8l-4 44l4 4v4l-4 28l-8 -8v-64l4 -20h-4zM216 784h8v4h-8v-4zM216 792h8 l-4 12l4 12l-4 4h-4v-28zM220 420l8 -8v8h-8zM476 1760h8v4h-8v-4zM512 1520h4l4 20l-8 -8v-12zM592 36h8v4h-8v-4zM592 72l8 -8l4 4v4h-12zM1080 1168h8l-8 8v-8zM1080 1196l4 -16h4l4 20zM1092 1220h8v8zM1104 1264h4v8h-4v-8z" />
<glyph unicode="V" horiz-adv-x="1219" d="M0 1802h36q74 -28 92 -28l108 24l4 -4q4 17 92 28q11 15 104 40l8 -12q-24 -40 -36 -180q0 -33 40 -76q12 -32 12 -60v-12l-8 -44l20 -104h-4l8 -52h-4q0 -22 48 -168q0 -52 44 -188l16 -24h4q10 219 24 264l4 4l-4 4v4l48 156l-12 68l4 4v4l-4 4v4l4 4v4l-8 52l4 12 l-4 4v4l4 12l-4 4v4l4 4v4l-4 4v4l4 4v4l-4 36v4l4 4l-4 4v40l4 4l-32 124h4l-4 4v4l4 4v4l140 -28l80 12q20 0 20 -8q68 0 68 68q11 36 24 36q94 -44 156 -44l24 8h8l48 -8l32 4l4 -4v-12q-76 -82 -88 -176q-25 -99 -32 -100l4 -12q-15 -92 -24 -92l-20 68q-24 0 -24 -40 v-8q1 -48 8 -48l-4 -20v-4l8 -68l-28 -140l4 -4l-4 -12l12 -96l-4 -36l4 -36q-12 -21 -12 -48l4 -12l-4 -4l-4 -12h-4l4 -4l-8 -40l4 -4v-4q-36 -137 -68 -324l4 -4v-4l-4 -20l4 -4v-4l-36 -192h-4q-13 18 -16 52l4 4q-10 0 -24 72h-4q-32 -108 -56 -264h-8q-8 4 -24 76h-8 q-13 0 -32 -100l-4 -4h-8q-12 44 -20 44l-28 -188q-9 0 -24 -84l4 -24h-12q-40 95 -56 176q-32 31 -32 112h4l-4 4v4l4 24q-27 156 -48 156l-44 -56q-10 -80 -20 -80q-15 0 -32 80q-8 51 -36 108v4l4 4l-16 72h4l-12 32l4 12q-30 139 -76 176l-60 104v4l4 4l-4 4v8l4 4 q-12 33 -12 56h4l-12 104h4l-4 4v4l4 4l-4 4v56l-4 16l4 12q0 104 -20 104l-36 8l-8 -8h-4l-8 8v8l4 4q-44 243 -84 376q-28 15 -28 48q-14 15 -28 76h4l-4 4v24l4 4v4zM20 1778h12l-8 8h-4v-8zM180 1474h4v8h-4v-8zM352 1814h12v4h-12v-4zM440 298h12v8h-12v-8zM672 1126h4 l8 48v4h-4l-8 -44v-8zM680 1186l8 8v4l-8 -8v-4zM1052 1542l4 -4h4v12zM1172 1822h12l-12 12v-12z" />
<glyph unicode="W" horiz-adv-x="1642" d="M0 1740l24 8h40l12 -4l20 4h136l136 36l12 -4l124 40l16 12l12 -16q-23 0 -56 -164q-7 0 -8 -68v-28l-4 -4l4 -12l-4 -24l4 -16h-4l28 -172q-40 -44 -40 -124v-32l-4 -4l4 -4v-32l72 -248q8 0 8 28l84 244q61 129 88 244v4l-4 4q3 32 8 32l-4 4v4l4 4v4l-4 4h-4l4 4v4 l-4 20l4 16l16 -4q76 40 76 88q9 0 16 84l-4 12l12 48l-4 4v4q8 40 16 40l-4 4v4q1 28 8 28l-4 4v8l8 8h4l72 -124l68 4l8 -8l-4 -16l4 -20h-4l4 -4v-72l56 -216l8 -12q-11 0 -16 -64v-4l4 -4v-4l-4 -4h-4l8 -20l-8 -76v-8q0 -43 60 -128q26 212 36 212q36 55 36 100l-4 20 v24l12 132l-4 4v4q8 17 8 64q0 70 -24 96q-5 0 -8 28h4l-16 56l4 4q-9 0 -12 20q8 0 8 16h8l12 -8h72q47 0 64 -8q167 16 244 44l76 24l4 -4h4l16 4l8 -8q-97 -177 -108 -284q-19 -75 -24 -140l8 -68q-32 -119 -32 -168v-8l8 -48h-4l4 -4v-4q-12 -43 -16 -164h-4l4 -4v-4 l-8 -16l8 -32v-4l-4 -4l12 -32l-16 -76l4 -12h-4l4 -4l-12 -72l4 -12h-4l4 -4v-36l-8 -8q-15 21 -32 88h4q-14 28 -20 28l-28 -84l4 -4v-4l-8 -24l4 -12q-26 0 -68 -224l4 -4v-12l-4 -36l4 -16h-4l4 -4v-16q0 -31 12 -76q-20 -27 -20 -40l4 -4v-4q-52 -192 -52 -220l-4 -4 h-4l-12 16l4 16q-12 0 -20 56l8 20q-12 0 -28 120v16l4 4l-4 24h-8l-40 -124h-4q-12 0 -20 68h4l-4 12q-5 0 -20 -60l-4 -4h-8q-17 117 -32 156h-4l-20 -92l4 -4v-4l-24 -76l-4 -24l4 -4v-12l-8 -8h-8q-20 87 -72 212l8 28l-4 4l8 36l-4 12l4 56q0 60 -28 88q-9 0 -20 -32 l-4 -4h-8q0 12 -8 12l4 4v4l-8 80h4l-48 236v4h-4q-40 -71 -40 -84l-100 -180q8 -35 20 -48l-52 -108q-24 -73 -36 -144l4 -4v-4l-4 -4v-4l4 -12h-4l4 -4q0 -53 -28 -68l-16 -108q-13 0 -44 148l-12 12h-4l4 -4l-4 -28v-20l4 -36l-4 -4v-4l12 -52q-17 -26 -36 -128h-4 q-12 0 -24 76q-36 97 -64 228l-8 16l4 12q-11 68 -20 68q-12 -26 -12 -52v-20q-36 -28 -36 -124l-4 -4h-4q-13 9 -28 96l-20 44l-4 4l4 4l-44 140q28 76 36 124q0 26 -56 72l4 4v4q0 55 -36 168l-68 384l-32 28l4 4v4l-8 8q15 39 32 156q0 32 -36 92v4q0 73 -32 160l4 4v4 l-4 12l4 4q-42 36 -48 68zM440 960h4v12h-4v-12zM492 48h4v8h-4v-8zM496 60h4v8h-4v-8zM832 1792h8v4h-8v-4zM840 1844h12v8h-12v-8zM936 1264h8v4l-8 8v-12zM972 1700h4v12h-4v-12z" />
<glyph unicode="X" horiz-adv-x="951" d="M0 1736v12q13 16 92 16l64 -12l28 4v-4l4 4h16l176 16l24 -4l20 4q0 -11 20 -32l4 -16l-4 -4v-4l4 -4v-4l-20 -44q2 -44 28 -88l4 -16l-4 -16q4 -32 36 -128l-4 -4l4 -4h4q27 67 48 176l-4 4l8 68l-4 16l4 4v4q-8 12 -12 64l4 4l-4 4l4 4l20 -4l16 4l48 -8q60 0 136 28 v-8h24l4 -4q16 8 44 8h8l100 -16v-16q-136 -172 -136 -224q-58 -121 -64 -216h-4l4 -4v-4l-20 -100q-45 -25 -88 -136q106 -229 116 -268l32 -88q-20 -22 -40 -172v-4l4 -16l-4 -4q0 -31 28 -168l-20 -128l4 -12q-2 -32 -12 -32l-8 8l4 4l-12 40l4 4q-9 0 -28 72l-20 16v-36 l8 -16l-4 -4v-4l4 -16q-11 0 -24 -112h-4q-12 0 -12 24h-8l-20 -104l4 -16l-4 -4h-4q-13 9 -24 76l-4 4h4l-16 72l-68 284l-40 112q-24 26 -24 40q0 29 -36 60l-84 -208l-16 -28l4 -4l4 -12h4l-16 -60l4 -4v-4l-32 -148l4 -16l-4 -12l4 -12h-12l-4 4h-4l4 4v8l-8 12l4 4 l-12 48h-4q-19 -20 -28 -100h-4l-16 36l4 4l-8 48l4 4v4q-12 29 -16 68h-4q0 -24 -52 -172l-16 -92v-8l4 -28l-4 -4h-4q-24 41 -24 104l4 4v4l-8 24l4 4q-4 39 -24 72q16 48 32 156l-4 4l4 20l-8 48l4 4l-12 76h4q-16 39 -16 72q36 12 64 100l60 132q24 91 56 164l-4 40h4 l-4 4l4 20q0 115 -56 200q-9 0 -16 60l4 4v4l-4 16h4l-8 32l4 4q0 63 -68 224q-16 25 -44 40q-26 73 -56 100zM96 80h8v8zM100 96h8v8zM188 336h12v4h-12v-4zM224 1208h4v8h-4v-8zM260 236h4l8 8v4h-4l-8 -8v-4zM696 1212h8v16h-4zM708 1244h4v8h-4v-8zM716 1260h4v8h-4v-8z M904 1736h8v8h-8v-8z" />
<glyph unicode="Y" horiz-adv-x="1221" d="M0 1663q0 18 44 33l24 -4q0 11 8 11q41 -4 52 -11q82 26 108 26l56 -8l20 4l24 -11l40 26l20 4q40 -15 44 -26v-19q0 -124 20 -161h-4l24 -74l-4 -3q32 -55 68 -147l48 -77l4 -4h4l72 195l-4 3l20 77l-4 4v4q7 88 28 88q25 21 36 77v7l-12 52l12 7l68 -3h72l36 -4 q156 20 156 37l52 44l20 -4h8q22 16 72 22h12l8 -7l-84 -166l-96 -183l-40 -114l4 -4v-3q-12 -36 -20 -37l-24 4q-45 0 -120 -162q-22 -42 -56 -143h-4l12 -59q-7 0 -20 -40l4 -4v-15l-8 -7l4 -4v-3l-4 -41l4 -11l-12 -88l4 -33v-44l8 -11v-4q-12 -34 -12 -92v-25l-4 -4 l4 -4q0 -32 -24 -70l4 -3v-4q-52 -84 -52 -239q-8 0 -8 -47h-4l4 -4v-4l-12 -58l4 -15v-11l-8 -7l-16 33h4q-12 16 -20 73h-8l4 -4v-7l-12 -15l4 -3l-4 -44v-4l4 -55q-12 0 -20 -44l4 -3v-4l-4 -11l4 -4v-3l-4 -15l4 -15l-4 -4h-8l-16 34l4 3q-11 1 -36 84l4 19v40l4 4l-4 3 v41l8 11q-4 59 -12 69l4 4l-8 63v3h-20q-8 -55 -44 -183l4 -4v-4l-12 -14l-20 77l-36 121h4l-4 4v14l4 4q-12 17 -12 66q1 44 8 44l-8 33l8 19l-4 3v4l4 22l-4 40l8 11l-4 4v4l4 3l-4 4v11l4 4v3l-8 8l8 11l-8 7l4 11q-6 1 -40 92l-28 37h4l-4 3v8q13 0 40 77l12 103l-4 3v4 l4 22q-5 37 -36 37l-32 -19l-16 22h4q-24 80 -84 158q-34 71 -96 136v44l4 4q-26 123 -68 158l-4 -4h-4q-44 37 -44 77q-28 26 -52 63zM356 1038l8 -7h4v11zM416 734q6 -15 12 -15v4l-4 11h-8zM452 352h8v7h-8v-7zM752 1497l8 8l-4 3h-4v-11zM1212 1795h8l8 7v4h-12z" />
<glyph unicode="Z" horiz-adv-x="1220" d="M0 399q52 31 76 103q0 16 77 163q52 83 95 186q47 64 84 83q81 63 84 83q155 280 167 352q6 0 12 36l-19 4q-42 -12 -42 -67q-8 -14 -42 -28q0 -23 -23 -48h-4q-16 0 -34 99q-17 -14 -50 -110q-24 -66 -53 -119q-11 2 -11 31l3 4q-20 105 -53 167h-19l4 -4v-12l-4 -16 l4 -16l-4 -4l4 -4l-16 -24q-31 0 -53 -75q-28 -46 -57 -150q0 -12 -8 -12l-7 47l3 4v4l-7 28l4 16q0 38 -27 115v75l4 16l-4 16v39l4 4l-4 4l8 75v20l-8 63h4l-8 40l4 4l-4 28v12q0 79 -8 103l4 11l-7 68l11 16l114 -16l4 4l46 -8l4 4h49q51 0 111 -20h4q43 27 80 87l19 -12 l11 4l92 4l84 -28q55 0 118 -19h4l99 23l69 -23l72 27l12 -8h15l15 4l38 -8q39 24 88 24v-12q-44 -49 -149 -229q-38 -89 -38 -115l4 -4v-4q-15 -37 -31 -135l12 -23q-1 -17 -46 -40q-110 -101 -130 -143q-20 0 -61 -99l-99 -190l-42 -95l8 -7h53l35 11l19 -4q39 0 137 56 q6 13 42 24l4 -4v-4q64 0 95 95q27 20 42 59h12v-71l7 -28h-4l4 -4l-15 -214v-23l-4 -4l4 -4v-64l15 -87l-4 -4v-4l4 -12l-4 -15l12 -60l-12 -43l8 -87l-4 -4h-4l8 -52l-4 -20l4 -4v-4l-4 -3v-4l4 -64l-15 -67l4 -4v-8q0 -28 -8 -28l4 -4l-4 -19v-32l-8 -8h-4l-3 16l3 12h-3 q-27 82 -27 103q-8 0 -11 27l-23 8h-4l-8 -27h-7l-12 7l8 56q-12 14 -16 79h4l-26 91h-8q0 -25 -46 -79l-65 -111h-7l-4 12l4 4v4q-20 91 -27 91l-15 8l-57 -79h-8v4l-4 35l4 4v4l-4 4v4l4 4v4l-4 12h4l-4 4v4l4 20l-4 31q-42 -36 -91 -115q0 -19 -8 -19l-8 8v11l4 4l-4 4 v20l4 4l-42 95q-48 48 -61 48q0 -16 -80 -20l-4 4l-3 -4l-39 4l-23 -4v4q-48 -38 -80 -99l-34 -56q-19 -26 -23 -75h-7q0 39 -42 147l3 12h-7l-42 -123q0 -24 -8 -24l-23 28l-42 -103l4 -4v-4l-4 -4l4 -12q-2 -32 -11 -32l-8 20h4l-4 4v20l4 4q-8 18 -11 91l3 4 q-11 4 -11 24l4 4l-4 4v39l4 16q-18 64 -27 162zM53 130h8l11 24l-3 4h-8l-8 -24v-4zM164 1282l4 -4h4v12zM248 673h4l7 19h-7l-4 -15v-4zM263 704q8 0 19 28l61 107v4h-4q-30 -24 -76 -139zM305 475h8l11 11v8q-10 -2 -19 -19zM450 1318h11l4 20h-7l-8 -8v-12zM481 463h11 l-4 20h-4zM591 289l8 -8v8h-8zM606 1009h8l-8 8v-8zM614 253h8v12l-8 -8v-4zM648 1753l12 -4q0 8 11 8v12l-23 -12v-4zM683 1765l7 8h-7v-8zM709 1460h8v4h-8v-4zM877 1219h8q7 24 23 24v12l-31 -32v-4zM919 1314h4l8 8h-4zM957 1298h8v8zM984 1330h8v4h-8v-4zM992 269h3v8 h-3v-8zM992 1369h7v8h-7v-8zM1049 1587h4v8h-4v-8zM1053 1737h7v12l-7 -8v-4z" />
<glyph unicode="[" horiz-adv-x="569" />
<glyph unicode="\" horiz-adv-x="569" />
<glyph unicode="]" horiz-adv-x="569" />
<glyph unicode="^" horiz-adv-x="961" />
<glyph unicode="_" horiz-adv-x="817" d="M0 184l5 4v4l-5 16l5 4l-5 4v4q5 32 16 32h6q0 -12 11 -12l86 4h6l5 -4l5 4l71 -12l162 36l6 -4q0 11 65 20h11l16 -8q0 12 11 12l5 -4l33 8l5 -4l11 8h11l5 -4l38 12v-4l6 4h5l6 -4l27 4h10q0 -8 55 -48q46 -82 108 -132v-4h-5l-6 4l-5 -4h-6l-70 8q-14 -8 -108 -12v4 l-174 -28v12h-5q0 -19 -120 -36q-156 -60 -243 -60l-11 -8q-30 30 -44 80v68z" />
<glyph unicode="`" horiz-adv-x="682" />
<glyph unicode="a" horiz-adv-x="899" d="M15 697q12 100 20 100l-5 4v5q39 96 39 114l-5 23q5 53 15 53l-5 4v10l34 52l-5 14q62 117 171 204l54 19l5 -5q0 8 25 15l44 -5h24l5 -5l34 19h20q28 0 88 -57l29 -14l108 9q0 -9 24 -9l-14 -57v-33q11 -25 19 -138h-5l59 -118v-5l-5 -5l20 -66l-5 -5q0 -26 34 -90 l-5 -5v-4l5 -5l-5 -29l5 -37h-5l5 -5v-10l-5 -4v-5l5 -5h5l-5 -47v-19q0 -86 49 -142v-62l5 -62l-15 -109l5 -23l-14 -10h-10l5 5l-30 114h-10q9 -119 30 -119h5q0 -39 -35 -52q-8 -99 -19 -99h-5q-17 0 -24 113l-5 5h-10l-5 -24l5 -5v-4l-10 -48l5 -4v-10q-14 -23 -29 -23 l9 -10l-9 -47l9 -24l-14 -5q-21 0 -30 62q-7 0 -14 19l5 19l-10 66l5 47v19q0 9 -44 19l-15 -19l-10 10v5l5 4l-15 57h-9q0 -14 -10 -14l-5 14h-5l-10 -9l10 -10l5 5h5v-10h-10l-5 5h-5l-14 -14l-5 5q0 -26 -20 -33l-15 4v-14q-24 0 -24 -24l-39 -9l5 -5v-9q0 -11 -25 -15 v15h-5q-12 -15 -24 -15l5 -4v-5q-10 -17 -59 -43h-5q-230 210 -230 261q-8 0 -39 76v19q0 25 78 95q0 19 88 57q2 8 181 109q12 15 84 47q12 19 107 52v33l-58 199l-35 72q-32 42 -49 42l-58 -52l-40 -52q-73 -89 -73 -237l-5 -5l-5 -19l10 -66h-10q-5 33 -19 33 q-25 -3 -25 -28v-19l5 -34q-10 0 -10 -14l-19 -28h-5q-59 53 -59 90l5 5q-10 0 -10 18l-5 5h-14q-35 -105 -35 -133l-4 -4h-5l5 -5v-5l-10 -9q-18 0 -54 133zM72 652h8v4h-8v-4zM232 328q22 -51 43 -51l22 -15h58q210 25 210 73q19 5 72 74v14l-58 88q0 29 -29 29l-65 59 h-36l-181 -161q-36 -62 -36 -95v-15zM256 128h20q0 6 -16 12l-4 -4v-8zM552 1116l8 -8v8h-8zM656 320l4 -16h8q-5 20 -12 20v-4z" />
<glyph unicode="b" horiz-adv-x="974" d="M0 1768v6q78 12 100 29l5 -6h5l25 12l5 -6h5l10 11l5 -5h5l5 5h5l10 -11h10l95 17q22 0 40 -69l70 12q76 0 76 -35l25 6q-20 -24 -91 -240l5 -17h-5l5 -6v-17l-5 -6l10 -46v-40l-10 -11q10 -14 15 -103h-5l5 -6v-34l-5 -6l5 -6v-137h30q16 0 76 57q58 17 100 17 q144 -62 165 -97q24 -80 115 -292l15 -97h-5l15 -132q0 -89 -55 -338l5 -17q-35 -23 -35 -74q0 -18 -10 -18q-11 0 -20 58q-35 50 -35 91q-18 0 -55 -114h-5l-25 74l-30 6q-4 -15 -60 -29q-74 23 -130 103l-41 35h-5q-26 0 -45 -184l5 -17h-5l5 -17q-25 -33 -25 -97v-28h-15 q-23 92 -40 119l5 6q-5 75 -15 75q-45 -134 -55 -252v-57l-10 -12h-5l-20 58l5 5v6q-12 2 -30 97l5 6q-25 87 -50 332l20 315l-50 280l5 34l-10 184h5l-5 17l5 5l-5 29v12l5 5l-5 6v57l-5 155h5l-5 17l5 6q0 62 -100 303zM395 1408l5 -29l5 6h5l-5 23h-10zM410 698 q12 -93 101 -212q45 0 115 -68l15 5l-5 29l5 6h50q15 0 40 86v34q0 164 -90 229h-5q-15 -33 -15 -92l-5 -5h-5q-15 0 -25 91q-35 70 -35 86h-15q-92 0 -126 -137l5 -35h-5l5 -5v-6z" />
<glyph unicode="c" horiz-adv-x="884" d="M22 734q37 0 95 362q15 12 34 74q72 96 247 96h45l5 -6l6 6h11l6 -6l5 6h6q286 -43 286 -96q28 -29 67 -159l-5 -17q11 -130 22 -130v-5h-17q-12 44 -134 147h-6v-6q31 -135 45 -153v-5q-6 -17 -34 -17l-45 11l-16 -6q-41 22 -113 131q-13 16 -28 16q-140 -25 -140 -79 l-11 -17q11 -29 17 -232q0 -75 78 -158l23 -11q44 0 56 90l-6 23h6l-6 5v17l6 17l-6 29q0 79 51 79q44 23 73 23h50q46 0 84 -51q40 -2 40 -12l5 6h6q22 0 39 -40q-36 -407 -62 -407l-5 6h-6q0 -17 -11 -17l5 -17l-5 -23l5 -6v-5l-5 -23l28 -17q-4 -73 -11 -73l5 -6v-79 q-33 -41 -33 -85h-6l6 -5v-12l-17 -17l-34 97q-28 35 -28 50l6 6l-28 5q-12 0 -28 -56h-6q-22 24 -22 45l5 6q-18 0 -33 90h5l-22 85h-12q-8 -1 -28 -68q-33 -24 -33 -85v-5h-6q-73 93 -73 124l-22 23q-106 0 -197 62l-5 -6q-90 75 -90 102q-28 41 -28 62l6 6v6 q-27 46 -45 130h5q-22 57 -22 175zM67 632h11v6h-11v-6zM101 406h5v11h-5v-11zM207 429l11 -12v12h-11zM633 44h12v6h-12v-6z" />
<glyph unicode="d" horiz-adv-x="861" d="M0 602v12l4 5l-4 6l4 40v35l5 6l-5 5l5 29v40l-5 23l9 35l-4 6l4 28v6l-4 29q36 58 81 213q43 92 152 92q40 -4 40 -12l4 6h5q148 -46 148 -75l76 -69v12l4 92q-4 107 -18 155h5l-14 75l5 5q-12 15 -63 207q-27 56 -36 115l5 -5h9v5h-9v18l4 5v6l32 -11l13 17l90 -23h49 q100 32 143 63l103 -6l9 -17q0 -13 -22 -17l-5 6q-21 0 -63 -202q-13 -42 -13 -92v-69l-4 -5l4 -6v-6q0 -109 22 -155h-4q12 -33 22 -155l-4 -6v-6l4 -6l-4 -28v-18l9 -103l-5 -6l5 -40v-52l4 -29h-4l4 -5v-29l9 -75h-4l9 -17l-5 -23l14 -127q-14 -51 -14 -161l5 -17l-5 -17 l9 -52v-6l-9 -17l14 -29q-5 -57 -23 -120l5 -6l-23 -143l5 -6v-23l-9 -12q-9 0 -18 46l4 6v6q-12 47 -22 178q-57 54 -63 115q-5 34 -13 34l-4 -6v-57l8 -35q-5 -63 -35 -63v-11h-5l5 -6v-17l-9 -12q-5 29 -18 40q-40 67 -40 173h-5l-4 6l-197 -64q-83 18 -162 18 q-37 0 -111 166q-68 70 -68 133q-11 15 -13 57zM206 418q14 -36 31 -46h9q0 13 -31 40v6h-9zM206 688l9 -28h-5l9 -46h-4q47 -173 107 -173l5 -6q16 0 31 -17q81 23 81 63l9 167v12l4 5l-4 6v6l4 6q-23 172 -58 172q-46 69 -139 115zM658 286h9l9 29l-5 28h-4z" />
<glyph unicode="e" horiz-adv-x="869" d="M0 504l6 73v78l5 5l-5 4v5l5 5l-5 4v5l5 4l-5 5l5 115v41l6 27l-6 14q0 92 103 211q69 39 103 73q131 78 189 78q274 -37 274 -119l40 -101l-5 -5q9 -3 62 -123q29 -93 29 -124v-27q0 -16 17 -33v-9h-34l-12 -9l-160 28l-11 -10h-6l-63 5l-17 -5l-6 5 q-141 -101 -194 -101q0 -7 -51 -14v-9q15 -80 91 -142l40 -23q114 51 114 101l-5 51v22l85 -4q130 14 235 14l6 -5v-27l-6 -5l17 -110h-6l6 -14l-29 -156q-20 0 -45 -187q-15 0 -29 -106h-11q0 51 -57 147v41l5 18q-17 51 -28 51l-23 4v-4l6 -28l-23 -142l5 -4l-5 -28l5 -32 l-5 -5h-6l11 -22l-5 -5h-18l-5 23l11 23l-6 4h-5l-6 -4l-17 46h-17q-4 -23 -17 -23q-40 64 -52 110l-6 4q0 23 -28 23l-23 -4l-6 4q0 -16 -63 -23l-28 9l-6 -4h-6q-73 19 -234 160q0 13 -69 110zM274 784h6l137 32l6 -5q0 9 97 32l12 18q-13 179 -75 179l-45 32 q-69 -15 -69 -41q0 -30 57 -78v-4q-67 -38 -91 -92q-35 -50 -35 -73zM777 582l12 -14l17 5v4z" />
<glyph unicode="f" horiz-adv-x="674" d="M0 870q17 54 44 222l4 5h4q66 -52 96 -52q31 19 31 99l-18 80l5 5l-9 109h4l-4 4v10l-4 137l61 128q41 113 48 113q18 -28 56 -43h5l70 24l39 -5l4 5q100 0 210 -66q87 0 148 -71v-9l-70 -119l5 -4v-5l-140 -213l-39 -80h-13l-9 33v76l-18 89h5q0 24 -48 109h-18 q-48 0 -61 -109l31 -170l-5 -71v-28h5q81 19 118 19l56 -5l18 5l4 -5l-9 -113l5 -5v-5l-9 -28l4 -5l-4 -33v-90l-22 -142h-8q-22 121 -48 152q-10 69 -35 75h-9l-35 -37v-29l13 -198l-4 -19l4 -19h-4l4 -14q4 -118 18 -161l-5 -5v-5l9 -118q-3 -42 -13 -42l-31 142h-8l4 -90 h-4l4 -5v-61q0 -51 -22 -76l4 -19q-8 -57 -21 -57q-13 12 -22 90q-18 0 -18 29h-13v-52l-4 -5l4 -5v-5q0 -39 -22 -132l5 -4l-5 -33v-57l-8 -10q-13 0 -13 48l4 14q-13 0 -17 42l4 28q-11 0 -13 19q1 85 9 85l-5 15l5 4v5l-5 5l5 23v5q0 51 -18 118h-13l-4 -56v-34l-35 -99 q0 -23 -9 -23l-9 9l5 5l-9 19l4 4v5q-14 157 -26 203h5l-5 5v61l5 5l-5 5v24l5 23l-5 19l5 52l-18 114l4 23l-4 5v5l4 4l-4 33v109h-4q-65 0 -92 -104h-9q-14 0 -26 76l5 5q-31 41 -31 66zM204 548h8v4h-8v-4zM204 584l8 8v12h-8v-20zM272 620l8 -8v20h-8v-12zM276 4v-8h4v8 h-4z" />
<glyph unicode="g" horiz-adv-x="906" d="M-8 -153q46 157 104 204q52 39 129 72v8q-44 40 -84 40l-5 12q100 57 124 100q-135 27 -154 60q-79 92 -89 128q41 183 129 248q36 35 50 76l34 40q46 34 189 64l65 -16q24 0 24 44l5 4q0 12 10 12l-5 4v4l50 136l-5 12h5q12 -15 204 -72q39 -18 39 -24q-68 -57 -99 -152 q-7 0 -15 -32q0 -14 65 -40q71 -103 84 -148l-5 -40l5 -76h-10q-35 28 -45 28q-56 -15 -158 -140q-50 -44 -169 -116h5l64 8h30q48 0 224 -72q23 -33 39 -100q12 0 25 -56h-5l5 -12l-5 -12l15 -60v-16q0 -40 -65 -192l5 -4v-4q-14 -17 -24 -64l-15 -8l5 -12h-10 q-8 92 -25 92h-5l-65 -20h-39q0 -18 -45 -68q-10 -10 -10 -36l-10 -40h-5l-54 72h-10q0 -28 -10 -28l5 -4v-24q-30 -25 -60 -116l5 -4v-4q-7 -16 -15 -16l-5 4v4h10v4l-60 92l-24 12q-10 0 -10 -20q-10 0 -10 -24h-5l5 -4v-4l-10 -20l5 -52h-5l5 -4v-4q-23 0 -40 -92 q-18 -60 -25 -60q-8 0 -25 64l5 16q-34 36 -34 52h5l-5 4v4l5 4v4q-10 0 -25 100l-65 52h-5q-7 -40 -15 -40l5 -4v-4l-5 -12l5 -12l-5 -4h-5q-10 0 -29 64h5l-25 96h5q-30 46 -40 100zM96 487h15v4l-10 8zM235 -561h10v8zM240 -129q10 -24 20 -24l204 40l5 -4h5 q85 14 124 56q54 66 54 96q0 28 -64 52q-68 40 -70 48q-40 -13 -54 -32l-20 -12q-26 12 -50 12q-70 -61 -139 -196zM280 579q67 -47 99 -120l45 -4q154 100 154 160v12q0 47 -94 104h-5q-60 0 -184 -108l-15 -40v-4zM394 -409l5 -12h5l10 8v4l-10 8h-5v-8h-5zM429 279h15v8 h-15v-8zM772 -237v-12h5v12h-5z" />
<glyph unicode="h" horiz-adv-x="906" d="M-7 1646l5 4v5l-5 14q23 24 99 24l5 -5v-5l4 5h10l4 -5l29 10v4h19q86 0 160 47q23 15 85 24l4 -5v-14q-33 -40 -33 -94l10 -33q-57 -80 -76 -212l33 -250l-9 -42l5 -5v-5l-5 -4l14 -76q29 17 57 76h4l29 -5q11 9 70 14q0 33 38 33q17 28 38 28h4q38 -42 71 -103 q117 -58 137 -113q50 -80 89 -123v-14l-52 -221l5 -5v-5q-56 -193 -56 -259l4 -5v-4l-4 -5l4 -47v-14l-14 -71l5 -5v-4l-38 -161h-5q-23 13 -23 66v29l5 4q-29 58 -29 95h-4q-16 -37 -24 -38l5 -5v-9l-29 -47q-6 0 -28 66l14 9h5l-5 -5q7 -28 14 -28l10 28q-19 3 -19 14 l-14 -9l-61 264q14 60 14 108v5l4 5l-4 4v43l4 4v5l-9 10v9q0 132 -52 155q-39 29 -94 29h-14q-14 0 -38 -109v-14l10 -37l-5 -5q9 -17 23 -193l-4 -52l4 -14h-4l4 -5l-4 -57v-9l4 -28q-19 -115 -37 -123q-10 0 -14 38h4q-11 42 -18 42q0 -14 -10 -14l5 -4v-5 q-10 -19 -24 -137l5 -5v-4l-33 -151h-9q-7 0 -33 137h4l-19 99l5 4l-5 24v42q0 10 -14 10q-4 37 -14 37h-5q-18 -81 -37 -108l-24 -127l5 -5v-5q-6 -23 -14 -23h-5l-9 141l-14 14v10l4 19l-4 14h4l-4 4v15l4 4l-4 5q14 48 14 132v19q0 45 -33 75q0 -19 -14 -19l-5 5h-5 q16 74 28 80l-4 5l23 188l-4 5v5l9 18l-5 15h5l-5 4v5l5 127h5l-5 5v42l5 5l-5 5v14l5 28l-5 14h5l-5 5v5l5 4l-5 5l5 33v38l4 5l-33 207h5l-9 71l4 4q0 81 -56 170zM257 20h9v5h-9v-5zM342 246h14v5h-14v-5zM356 1716h9v5h-9v-5zM469 892l9 -10h5l-9 10h-5z" />
<glyph unicode="i" horiz-adv-x="442" d="M15 1381l27 78q71 76 188 114q114 -8 114 -59l37 -92l5 -18q-4 -64 -14 -64l4 -5v-4q-2 -25 -132 -124l-60 -46h-4v41l4 5q-27 64 -87 87q-32 0 -77 69zM61 1097q22 13 132 37q0 9 69 27l14 -4q0 12 110 23l41 -37q-17 0 -32 -183l-14 -32l5 -5v-4l-10 -9l14 -128h-4 l4 -5v-14l-4 -18l4 -5l-4 -22q0 -40 9 -64q-19 -90 -19 -133l5 -23h-5l5 -5l-5 -22v-14l5 -32q-7 -151 -14 -151l5 -5v-4l-5 -5l5 -4v-5l-5 -5v-4l5 -5l-5 -32l9 -41q-7 0 -18 -69l5 -4v-5q-10 -82 -32 -82l-5 -4q-8 0 -27 -83h-10l-18 19q7 55 14 55q-32 75 -37 114h5 l-9 18l4 23l-4 -5h-9l-5 14l5 4v5l-5 18l5 5h4l5 -5v14h-9v9h9l-5 14h-9q-7 -2 -32 -73l-5 -5h-13q0 128 -28 128q-25 -33 -36 -100h-5l-14 22l5 5l-5 5v45l-23 42l19 82q-19 88 -19 142l19 96q-5 64 -23 137l4 5v4l-4 5l14 91l-5 5l5 32v41l4 5l-4 4v14l4 18l-4 18v14l4 5 l-14 41h5zM148 1422l9 9h-9v-9zM157 1440l14 5v4h-10l-4 -4v-5z" />
<glyph unicode="j" horiz-adv-x="455" d="M-225 -129q46 0 54 89q64 169 98 237l18 27l-4 4l4 5h5v-36l-14 -157l9 -53h-4q37 -112 116 -112q35 63 35 85l-4 5l45 192q3 35 9 35l-23 152q5 68 23 143l-5 5v4l9 45l-4 45h4l-9 40l5 4l-27 210h4l-27 179l5 5v4l-22 90l17 9l-4 13l4 4h5l107 -8h14l4 -5q81 11 94 36 q75 40 103 40l9 -13v-5q-32 -74 -32 -112v-40l-4 -18l4 -18l-4 -53l9 -49l-9 -72l4 -13h-4l4 -5v-4l-4 -5l13 -67l-18 -85l5 -4v-5l-5 -4l5 -5v-22l-5 -4l9 -41l-9 -27l5 -4l-5 -22v-27l5 -27l-31 -197v-22l-5 -121h-4l4 -13l-4 -5l31 -196l-13 -62l8 -18l-8 -139h-5l5 -4 v-5q0 -43 -18 -103h-9l4 5l-4 4v5l4 4v5q-10 0 -13 58l4 18l-4 22l9 18l-14 4q-7 -53 -27 -53l9 -14l-4 -31h-13l-9 9v9l4 4l-13 54v14l9 8q-9 21 -18 23q-13 0 -41 -81q-39 -10 -84 -170l-45 -152h-9q-8 0 -13 27l4 5l-9 36l5 17l-9 14l4 18q-8 0 -36 80l-22 31 q-27 -33 -49 -98h-13l-23 85h-8q-54 -109 -54 -125q0 -14 -9 -14l4 -4v-4l-9 -9h-4l-13 76l4 4l-9 9v9l5 4v5l-9 9v62q0 54 -36 99zM12 -339v-14h4v14h-4zM30 1435v4q6 41 76 144q9 34 62 80q42 -48 94 -63l23 -4h22l71 4q36 -16 36 -53l-4 -5q18 -7 18 -31v-4 q-48 -188 -94 -188q-60 -85 -108 -85q-55 0 -107 67l5 4l-67 99q0 17 -27 31zM75 -554v-13l8 9l-4 4h-4z" />
<glyph unicode="k" horiz-adv-x="921" d="M0 692q29 44 57 178l5 37l-10 78l5 23l-5 13l5 37l-5 28l10 41l-5 4v5l5 4l-5 5q10 44 10 124v9l5 4l-10 32l10 28l-5 101l-5 18h5l-5 5v59l16 211l-6 13h6l-11 60l5 4v5l-5 41l5 5v4l150 -41q25 16 83 32q47 14 83 14v-5l5 5h10v-5l-46 -256l10 -37l-10 -114v-9l-5 -19 l10 -36h-5l5 -5l-10 -78q3 -28 25 -55l-10 -36l5 -5q-10 -38 -10 -100v-28l10 -9q31 65 47 124q73 107 83 174l-11 9v4q31 13 31 64v5l26 9h5l68 -32l5 5h5l217 -28h5l16 -9h10l41 9h6l10 -9q-176 -141 -248 -256q-31 -64 -109 -129l-46 -82v-5q74 -110 170 -210 q16 -46 155 -138l6 -22v-14l-6 -5l6 -4l-6 -23l11 -14v-46l-5 -64l5 -4v-5l-5 -14q37 -168 62 -192l-6 -18l6 -14q-19 0 -42 -229h-5q-12 0 -31 87h5l-10 27h5q0 31 -41 165l-47 106v4q-15 0 -52 -91l-36 -60h-15v9l5 5l-5 4v37l-5 23l20 9v5h-5l-15 -5v5l5 4v5 q-33 0 -68 133q0 106 -87 187q-60 183 -88 229h-5q-11 -10 -11 -32h-5l5 -4v-5l-5 -5l5 -4v-60l5 -23h-5l5 -4v-50l6 -60q-4 -37 -11 -37l11 -36l-6 -5l26 -206l-36 -50l10 -9l-10 -10l5 -4v-5q-16 -123 -36 -123l-5 4v9l5 5q-5 50 -16 50h-10l-21 55q-12 57 -25 64 q-41 0 -62 -68l-6 -5h-5l-21 50l6 14l-6 14h6q-28 82 -37 82h-5l-20 -196q-16 0 -37 -152l-5 -4q0 -13 -10 -13q-36 48 -36 155q-9 0 -11 23v4l6 5l-6 4l6 32v74l10 13l-5 5h-5l15 160q-26 188 -62 234zM140 1617h5l5 13h-10v-13zM145 1639h5l5 23v19l-10 -9v-33zM150 1694 h5v10h-5v-10zM150 1708h5v18h-5v-18zM160 1127h5v9h-5v-9zM160 1140h5v19h-5v-19zM160 1168h5l6 23v32l5 4l-5 5l10 37l-5 13l5 28h-10v-9h-6l6 -5l-11 -64v-64zM176 1324h5v9h-5v-9zM181 1383h10v5h-10v-5zM228 1763q5 -32 15 -32l16 5l5 -5v18l-11 23h-15zM331 1841l26 -5 l5 5v9h-21zM564 1420h10v4h-10v-4zM714 1250h10v5h-10v-5z" />
<glyph unicode="l" horiz-adv-x="502" d="M0 1776l21 31l17 -10l128 15q0 21 33 21l10 10q45 -10 49 -21l53 16l54 -10l5 5h6l5 -5l108 15v-5l5 -5v-5q-30 0 -70 -202q-32 -67 -32 -93l5 -31l-10 -46l37 -196v-41l-5 -5l5 -6v-20l-5 -21l5 -5v-5l-21 -155l10 -67l-5 -5v-5l5 -21l-5 -26l16 -82q-13 -203 -27 -227 l6 -21l-6 -57l11 -93v-20l-5 -5l5 -6l-5 -46l16 -77l-6 -6l11 -10v-41q0 -11 -21 -11v-10l5 -26h-5l5 -15q0 -88 -21 -222h-11q-23 0 -32 222l-27 217h-11l-5 -31l10 -52l-32 -77q-4 -83 -11 -83l6 -5v-10l-6 -6l6 -5q-8 -56 -22 -56q-10 17 -37 175l5 21l-11 36l6 72 q-22 8 -22 36v16l-5 103h-11q0 -58 -43 -181l6 -5v-5q-25 -103 -33 -103q-20 0 -32 160q-9 0 -11 51l11 52l6 149h5l-5 6v10l5 21l-5 5l5 15l-16 217l11 62l-38 170l5 5l-5 36v83l-5 26h5l-16 118l5 21l-11 284h6zM97 1564l5 -5h5v57h-10v-21l5 -25zM102 1533l5 -201h11v31 l-5 52l5 31l-5 26h5l-5 5v25l-6 52h-5v-21zM301 383l5 -16h11v11l-11 10z" />
<glyph unicode="m" horiz-adv-x="1247" d="M0 1214l148 53l4 -5h5l5 5h5l23 -5l72 19l33 -5l15 5l4 -5v-5q0 -36 -19 -57l10 -9l-5 -5v-5l5 -14l-5 -5v-5l5 -19h-5l5 -4v-48h5q57 43 123 67h38q55 -19 96 -81q16 -38 23 -38q59 114 124 114q70 34 148 38v-5l33 15l134 -43q147 -32 147 -43v-14q0 -10 -14 -10l9 -9 l-4 -24v-5l4 -19l-4 -5l33 -200h-5l5 -5l-9 -85l9 -81l-5 -15l5 -52h-5l5 -5l-5 -14q4 -108 19 -157v-34l-9 -123l5 -24q-12 -86 -19 -86q-15 21 -15 43l5 5q-8 81 -19 81l-14 -53l4 -4v-5l-28 -138h-10q-13 0 -33 185l-14 15q6 33 14 33l-10 52l10 29v5l-5 28l5 5v5 q-4 47 -14 47h-5q-14 -46 -19 -104l5 -24q0 -39 -34 -110q0 -27 -19 -85l5 -5v-14l-9 -10q-10 0 -34 167q-9 0 -9 19l4 14l-9 10v28q1 27 14 53l-5 4v5q10 116 24 167l-5 5v57q0 50 -85 209q0 29 -19 57q-81 -12 -81 -42q-21 -44 -38 -124l4 -5v-5l-4 -5l4 -4v-10l-4 -5 l38 -185v-34l-5 -52l5 -14l-5 -5l5 -24q0 -48 -10 -48l5 -33v-48l-14 -14l-15 34l5 14q-39 65 -52 66q-43 -69 -57 -147l-24 -5h-5q-20 62 -29 62h-4l-5 -24l5 -5v-4l-29 -91l5 -5v-4q-6 -24 -14 -24l4 -5v-5q-12 -62 -19 -62q-11 0 -23 62l4 19l-4 34l4 33q-14 0 -19 81 l5 24l-5 5l10 81l-24 171l5 29l-5 19l9 47l-4 5v10l4 4l-4 5v5l4 5q-19 142 -66 142h-29l-33 -42l-10 -58l5 -33q0 -62 -9 -62l4 -5v-4q0 -24 -9 -24l5 -5v-5l-19 -52l4 -5l-9 -62l5 -28h-5l5 -15l-29 -90l5 -5l-29 -143l5 -4q-5 -72 -24 -72l-5 -19v-57l-4 -5l4 -5v-4 l-4 -5v-5l4 -5v-4l-4 -29q-29 0 -29 71v39l-29 66l5 5l-5 5q4 38 10 38l-5 5v33l5 5l-24 71l5 33l-5 48h-5l-19 -62l5 -5l-5 -33v-19l5 -29q-38 -59 -38 -109q0 -19 -14 -19l-5 14l-5 -5h-5l-4 5v29l4 4q-23 73 -23 105l4 53l-4 28l28 186l-5 38l5 5l-19 95v29l-5 38l5 38v9 l-5 19l5 5l-5 48v76l-19 81l5 5v4zM567 767l9 -10h5l-10 10h-4zM590 314h10v5h-10v-5zM629 305h9l-9 9v-9zM1014 1081q28 -28 57 -81l5 -5h5l5 5v5q-9 0 -24 47l-48 34v-5zM1100 290h10v5h-10v-5zM1138 1105h14v5h-14v-5z" />
<glyph unicode="n" horiz-adv-x="944" d="M0 1188l5 6v5l-5 17q266 27 401 65l11 -44l-6 -70v-11l-11 -22l6 -22l-6 -16l6 -6h5q54 98 157 98l82 6q137 0 270 -60v-6q-2 -21 -16 -21l6 -6l-17 -92v-60l6 -17l-6 -27v-92q0 -44 33 -202l-6 -27v-120l-5 -5l5 -6v-5l-10 -17v-60l-11 -16l5 -22l-5 -5l5 -27v-11l-5 -6 l11 -60q-8 -103 -17 -103l6 -17l-6 -5v-5l6 -22l-6 -17l6 -16l-11 -11l16 -97l-5 -60q-22 0 -71 212l-5 5h-5q-11 -11 -11 -60l-6 -5h-11q-9 0 -65 141l-21 -5l-16 5v-5l5 -16h-5l-22 -22l-22 27v16l6 6l-6 5v38l11 77l-5 16h5l-5 5v6l5 33q-19 250 -38 250l11 98 q0 79 -76 125v11l-49 22q-65 0 -92 -60l6 -5q-9 0 -17 -38q6 -87 33 -169l-5 -22h5l16 5l6 -5v-16q-38 -24 -38 -180l5 -27q-4 -77 -11 -77l6 -5v-93l5 -27h-5l-38 27q0 36 -38 44v-5l5 -28l-11 -11l17 -21v-17q-29 -128 -38 -272l-16 -11q-28 55 -55 163l6 6h5l6 -6v11 q-27 0 -27 17v5l5 6l-49 207q-11 0 -11 -49h-5l5 -6v-11q0 -20 -32 -54v-6l11 -38h-6l6 -5v-6l-11 -27l5 -16l-5 -6h-6l-65 164l11 38l-16 136h5l-32 103h5l-5 6l5 82v10l6 6l-6 5q33 184 33 262h5l-5 5v109q0 92 -76 234zM238 55l22 -21l5 5l-5 16h-22zM249 -4v-5h11v5h-11 zM298 23h5v22h-5v-22zM303 1118h11v5h-11v-5zM368 1237h11v17h-5zM395 197h6v11h-6v-11zM542 1074l27 -5h11l27 5v16l-38 6q-27 -7 -27 -17v-5zM661 175h16v6h-16v-6zM861 1090h6v11h-6v-11z" />
<glyph unicode="o" horiz-adv-x="884" d="M23 588q18 70 29 171l-4 6v5q68 156 68 260h5l-5 6v11q0 14 113 33q77 59 235 111h44l5 -6l5 6h39q135 -37 206 -83q21 0 59 -199q0 -65 19 -150l-5 -5v-6q10 -78 25 -116l-10 -83l5 -6v-5q-12 -106 -64 -199l-58 -117q-40 -117 -40 -149h-14l-10 11v28q0 88 -30 88 q-9 0 -24 -50q-15 0 -15 -22q-11 0 -19 -49h-5l5 -6v-6q-40 -149 -54 -149q-11 0 -20 67h5q0 45 -39 88h-5q-15 -66 -25 -66q-14 0 -29 110h-10l-49 -193h-14l-10 11l5 6q-17 15 -49 171l-20 50l5 16h-5l-20 6l-4 -6v-33q-13 -138 -40 -138h-9q-8 0 -35 110q-47 64 -83 222 q-31 0 -54 249zM223 520l12 -58h-6q0 -68 139 -87q0 -8 104 -23q128 34 173 98l29 116l-6 6v6l6 35v11q-20 128 -52 128q-15 0 -41 81h-11q-46 -79 -46 -122h-12q-10 0 -52 151q-15 29 -40 29h-24q-90 0 -138 -209q-20 0 -35 -156v-6zM275 4v-18h8v5l-4 13h-4zM423 654h4v9 h-4v-9z" />
<glyph unicode="p" horiz-adv-x="944" d="M0 1153l5 6l-5 6v17l5 30l82 -18l11 12h16l6 -6h5l11 17l27 -5h6q23 17 54 17q60 19 60 29l6 -5h5q29 0 126 40v-5q0 -40 -28 -82l-16 -88v-41l11 -11h5q62 64 88 64h5q0 -10 49 -29l6 5l27 -5h11l54 5v-5l87 17q77 -20 77 -99q92 -194 92 -222l-5 -6q33 0 33 -129l5 -6 l-11 -29l6 -6v-11l-39 -105l11 -106q-16 -70 -38 -111l6 -35l-28 -111q-9 0 -16 -64h-5l5 -6v-6l-16 -17l-17 41h6q0 19 -38 81q0 100 -22 100h-6l-76 -88v-12h11v-11q-11 0 -11 -18l-5 -6h-17q-5 60 -81 129l-93 29l-6 -35l6 -6v-6l-11 -23q27 -42 27 -105v-100l-5 -28 l5 -35v-47q0 -70 -11 -70l6 -6v-12q0 -30 -17 -35l-27 6l-27 -53q-7 -111 -22 -111q-16 0 -54 164h-6l-16 -23l5 -18q-16 -3 -16 -47v-93l-33 -99l6 -6v-6l-33 -24l-22 106h6q-17 30 -17 70l17 64l-6 6v6l6 52q0 42 -55 228l-11 87h6l-6 6l6 59l-22 234h5q-65 436 -92 514 l5 6l-11 76l6 17l-6 35v35l-16 41h5zM365 1229l16 6v6h-16v-12zM381 645l17 -94h16q72 -29 98 -29q133 0 175 123l16 87q-59 65 -82 65l-16 -6v6q-207 -47 -207 -117l-17 -18v-17zM414 1299v6l6 6h5l6 -6v-6l-6 -6h-5zM730 703h11v12h-11v-12z" />
<glyph unicode="q" horiz-adv-x="891" d="M47 728l5 -1q-4 15 -4 35q0 18 3 41l4 34l-2 23q26 57 69 103q28 78 103 128q18 -2 45 35l-4 7q26 -3 35 31l5 -1l48 -22l21 3q21 -22 113 -47q14 -36 37 -38l3 28l6 5l-4 7l7 57l-9 12l8 28l-3 18l6 5h5l-10 41l1 12q2 11 27 8l1 6l24 -8l36 -4h8q30 0 77 25l25 -8 l67 -1l20 -8l26 3l4 -7h5l23 20l3 -17l-13 -28l4 -6l-1 -6l-60 -155l5 -7l-2 -17l-6 -5l4 -6v-6q-13 -85 -21 -85l4 -6l-3 -28v-41l-11 -51l-11 -91q-4 -34 -4 -66q0 -42 7 -80l-6 -5l-5 1l11 -42l-6 1l10 -181l-6 -5l-1 -6q11 -1 23 -147l-2 -23l-13 -16q-2 -17 58 -122 l-3 -23q-2 -15 -2 -30q0 -41 14 -86l-8 -23q46 -29 58 -70q24 -70 36 -171l5 -1q-11 -57 -22 -55l-9 12l6 5q-20 2 -48 69l6 5q-74 20 -74 65v7l-57 87l-5 1q27 -77 28 -113l-7 -17l12 -65h-5q12 -66 15 -262l-6 -5l-5 1q-10 1 -27 78q-10 1 -6 30l-71 135l-87 351v5 q0 36 -46 121l-23 240h-5q-63 -53 -91 -53h-3l-45 10l-6 -5l-25 8q-249 27 -241 90q-35 97 -42 335zM140 772q0 -21 59 -127q25 -89 133 -89h15v-8l7 8q128 -27 148 -53q52 59 52 135q-27 276 -89 276l-81 22q-59 -79 -59 -142h-22l-15 60v52l-37 23h-15q-94 -95 -96 -150 v-7z" />
<glyph unicode="r" horiz-adv-x="779" d="M0 1168q0 10 26 17l5 -6h5l113 17h67q18 0 108 45l118 56l31 6h5v-6l-20 -45l5 -33l-10 -84h10q70 112 103 112q19 0 56 28h5q12 -17 36 -17q104 -65 114 -84v-6q-21 -27 -21 -45l5 -33h-5l5 -6l-5 -84v-39l-5 -6l5 -5q-15 -80 -15 -157l-26 -23q0 74 -31 90l-41 50 l-26 -11v6q-137 -64 -154 -112v-6l15 -146l-5 -16l21 -163l-5 -22l5 -6q-16 -219 -41 -219q0 -39 -11 -39l5 -5v-6l-5 -6v-5l5 -6q-12 -84 -30 -84h-6q-11 7 -36 135l-5 5v6q-15 -6 -15 -34v-5l5 -51l-21 -50v-89l-5 -68h11v-5l-11 -11h-5q-77 148 -77 212l15 22l-5 6v11 l5 6l-10 50q-55 -21 -77 -67l-5 6v5l10 28h-5l-5 -5h-5l-11 16l11 107l-16 78h5l-5 6v6q5 97 16 123l-11 174l6 5q-9 7 -72 258q-46 163 -88 202l5 5v6zM298 31h5v16h-5v-16z" />
<glyph unicode="s" horiz-adv-x="831" d="M0 746l6 6h22q12 0 57 -54q45 0 74 -54q20 0 46 -33l210 -86l62 -17q37 0 40 98q-22 86 -63 86l-11 -10h-11l-6 5h-6q0 -22 -136 -22q-82 31 -119 87q-70 57 -108 195v16q6 68 108 162q0 14 45 54q0 28 91 92l17 -11v11h-11v6q92 20 147 48l6 -5q0 12 91 32v-5l45 11 l29 -11l45 5v6l-5 5v6q49 0 153 32v-5l-23 -92l-5 -6q0 -16 -12 -16l6 -5v-6q0 -22 -17 -43l6 -6v-43q-28 -238 -46 -238h-6l-17 49l-5 -6h-12q-53 0 -62 87l-17 16l-57 -70h-11v11h11v5q-17 0 -17 33l-62 81h-18q-15 -2 -22 -27l-6 5h-11l17 -54l-46 -49v-27q0 -59 57 -59 v5l6 -5h11q0 16 12 16l5 -5l12 10h5q0 -18 29 -27q1 33 68 33q68 0 148 -162q28 -75 28 -168q51 -64 51 -97v-33l-6 -5l6 -6v-5l-6 -16l12 -11v-11q-116 -184 -131 -184l-40 -5l-28 5h-68q-18 -7 -57 -70l6 -6v-5q-8 -43 -17 -43l11 -27l-17 -11q-46 25 -46 54h-11 q-35 0 -68 -135l6 -17l-6 -5h-6q-17 3 -17 43q-29 0 -57 146h6l-11 33l5 5v6l-17 10q-39 -92 -68 -194h-17q-45 81 -68 238q-11 0 -17 43l6 5v6q-63 140 -63 189h6q-13 78 -34 108v38l5 22zM125 541h11v5h-11v-5zM324 698h11v5h-11v-5zM347 92h5v16h-5v-16zM449 195l11 11v5 l-11 -11v-5zM500 260h6l5 16h-11v-16zM540 925h11l11 11v5h-11z" />
<glyph unicode="t" horiz-adv-x="652" d="M0 1165q14 3 14 50l19 18h13l19 -6l5 6h4l70 -12l5 31v106l-5 32h5q-28 128 -75 244l5 6v6l-9 13l4 6q-14 0 -14 25h-9v12l5 7v6l37 -19q37 4 37 13l33 -7h28q39 0 55 19l10 -12l4 6v6l5 -6h5l14 12l18 -6l177 69l5 -6l4 6h19l18 -44l-4 -6h-5l5 -6v-7q-61 -243 -61 -331 l5 -6v-7q-9 -24 -9 -68v-25l9 -25l79 31l28 -6q17 18 32 18h10l9 -50l-5 -6v-6q14 -32 14 -63l-4 -18l9 -101q-28 -281 -37 -281l4 -6q-15 -157 -23 -157q-34 74 -46 138h4q0 21 -65 100q-7 25 -14 25h-9l-9 -181l9 -169l-5 -57l10 -62q-42 -23 -42 -75l-5 -6h-4l4 -7v-31 l-4 -6l4 -6l-4 -44v-56l-10 -51v-25l5 -25l-5 -6v-6l5 -25l-5 -6l5 -7l-5 -6h-18l-10 25l5 25q-3 26 -74 107l4 6h-14q-15 -113 -23 -113l5 -6v-63l-14 -118v-25l-10 -13l-32 101l-23 12q-5 -69 -14 -69l-10 19h5l-5 6v13h10v12q-14 0 -14 13v6l4 37l-14 94h5l-5 6v13 l10 125l-5 37l5 19l-5 25l9 69l-4 25h4l-4 6v50q-24 227 -24 307h5l-5 6v6l5 6v7l-5 6h-4q-37 -56 -70 -81q-28 -86 -28 -132l-14 -12q-14 6 -14 37l5 7l-5 6h-4l4 44l-4 37l4 38l-4 312v25zM288 435h4l8 33l-4 6h-4l-4 -6v-33z" />
<glyph unicode="u" horiz-adv-x="996" d="M0 1063l6 16l77 -6q95 47 245 47v-5l5 5h6l33 -10l6 5l17 -21v-15l-23 -11l6 -5v-5q0 -26 -11 -26l5 -37v-52l6 -21l-6 -5l6 -78v-83l-6 -21q20 -157 45 -157l17 -5l61 16l5 -5h6q55 0 55 161l-16 73l5 5l-5 5h-6l6 6v10h-6v-10q-12 0 -22 62q-10 0 -11 26l5 26l-5 6h11 v10h-11v10l11 16q-14 0 -17 26l34 26q-23 0 -23 16l17 5v5l-17 5l11 52l-11 11l11 10l6 -5l56 10l33 -10q43 0 56 26l38 -10l17 5l17 -5l105 31l39 -5q77 19 89 31l11 -10q0 -38 -39 -94l6 -16q-13 -63 -33 -94v-10l-6 -73l6 -21h-6q22 -67 22 -135l-5 -47l5 -16h-5l50 -245 h-6l-5 6h-6l-11 -42l6 -16h-6l6 -5q-31 -177 -62 -177l-22 10q-20 -45 -39 -151l-5 -5h-6l6 -5v-5q-4 -68 -11 -68l5 -5v-36h-11l-17 51l6 16h-6q-21 64 -44 99h-11v-16q0 -33 -17 -52l6 -5v-10l-11 -11h-12v16l-16 68h5l-27 62l5 16q-5 36 -17 36q-50 -68 -50 -88l6 -26 l-11 -11l5 -16l-22 -10l6 -5v-5q-17 -17 -17 -68l-6 -5q0 -10 -16 -10l5 -5v-11l-16 -16l-61 151q0 16 -12 16l6 26v10h-11v-10q-40 0 -89 -58h-11q-18 62 -39 84l5 5v5l-100 63l-44 10v5l6 6v5l-23 5l11 10l-27 79l5 31l-5 21l5 5v5q-61 282 -61 360v41l-11 58l11 10l-6 5 h-5l-6 -5l-5 5v16h11v10q-13 0 -28 21l6 26v11h-23v10h12v10l-6 -5h-6q-20 16 -38 68h-6zM28 1047l11 -10v10h-11zM534 11h11v5h-11v-5zM695 245l11 10v6h-11v-16z" />
<glyph unicode="v" horiz-adv-x="929" d="M0 1188q0 12 104 26v-10q100 42 209 42l5 6q37 -6 37 -16l29 21l5 -5h4v10h15v-5l-5 -21l5 -6v-5l-5 -5v-6l14 -101l-5 -91q24 -100 43 -117l-9 -22q41 -171 56 -171q29 133 43 273l-5 5v5l29 134l-5 5v6l5 5l-5 5l5 27v43q0 45 9 69l-4 5l4 6l48 -11l4 5v-5l5 5h14 l52 -5q16 16 162 43l4 -6h5l57 22v-11q-33 -35 -109 -240q-17 -17 -76 -256l-57 -299l-23 -43l4 -5v-6l-23 -58h9v-16h-5l-4 5h-5v-11l9 -11q-19 -94 -19 -154h-9l-24 42l5 6q-5 53 -14 53h-5q-13 0 -28 -245v-11l4 -22q-28 -84 -28 -127v-5h-10q-9 0 -14 58q-47 92 -47 165 h-14q0 -16 -38 -91l-10 17v16l5 21q-29 93 -33 176q-48 97 -48 128h5l-43 198q-42 0 -113 245q-52 87 -53 150q-30 39 -56 96zM370 1230l4 -16h10l-5 16h-9zM829 1294l5 -5h14v16h-9zM853 1316h10v5h-10v-5zM882 1284h4v21h-4v-21z" />
<glyph unicode="w" horiz-adv-x="1348" d="M0 1066q0 44 29 82h29l64 6l24 -6l17 12l6 -6l64 25v-6l134 38h29v-7q-41 -74 -41 -195l6 -69l-6 -25l82 -202l-6 -19h6l35 6l17 189l-12 63l6 7v6l-6 25v6l6 7l-11 63l5 6h6l29 -13v7l6 6l-6 6v13h18l6 -32h5q18 45 88 45l110 37l18 -6v6q3 26 17 26h6q8 0 41 -139 q32 -102 111 -214h5q0 28 18 56v26q-70 280 -70 321v6h6l17 -6q0 19 -17 19v6l6 6v7h-18v12h23l111 -19l12 13l41 -6l58 12l11 -12l158 50l5 -6v19h6q0 -16 24 -19v-13l-6 -19l23 -25q-16 -131 -52 -189l-18 -19v-75l-87 -303l-82 -340q-75 0 -75 -76q-12 0 -35 -183l5 -6 v-6l-52 -157l-6 -6h-6l-11 12v6l6 7q-17 0 -64 283h5l-5 6l5 44v7l-11 12l-58 -113h-12q-35 30 -35 63v6l12 19q-18 0 -18 13l6 6l-12 12l6 7v6q-9 2 -46 139q-12 5 -35 82h-12l-12 -32l6 -25q-9 0 -35 -101q-76 -37 -76 -107l-23 -95l6 -6v-6l-6 -25v-13h6 q-23 -182 -35 -182q-44 47 -81 232q0 63 -18 63h-6q-16 -4 -64 -126h-6l-5 19l17 32v12l-29 -6q-22 0 -58 183q-29 64 -70 214q-122 206 -122 309q-14 167 -47 227zM285 128h5v11h-5v-11zM387 594l5 -17h15v11l-10 11h-10v-5zM514 308h5l5 16v6h-5l-5 -17v-5zM662 976 l10 -12h5l-10 12h-5zM830 291h10l-5 5v6l5 22v6h-5l-5 -28v-11zM921 1077h11v5h-11v-5zM1059 931h5v11h-5v-11z" />
<glyph unicode="x" horiz-adv-x="1024" d="M0 1076v28q19 18 19 90q43 16 87 104q19 0 77 111v7h4l53 -139q74 -155 159 -228l9 -14q159 253 159 277l5 21q65 -56 240 -56l19 14q52 -55 72 -55q101 -15 101 -35q-18 -35 -130 -97q0 -10 -72 -55q-52 -51 -86 -104q-87 -114 -87 -153q77 -25 144 -97q0 -14 145 -159 l48 -55h4l15 6l5 -6v-14q-124 -149 -135 -236q-17 -44 -34 -139l-4 -6h-5l-24 76l5 41q-14 47 -29 63h-5q0 -72 -38 -139q0 -46 -34 -131v13q-14 0 -14 14l4 7l-4 7v21l4 7q-24 138 -24 187h5q0 100 -101 201q-9 34 -29 34l-48 56q-85 -168 -129 -319q-15 0 -15 -69 q-11 0 -19 -56q-14 -7 -14 -41l4 -28l-4 -7h-5l5 -7v-27l-10 -14q-23 40 -58 187l-14 14h-10l-14 -56l10 -83v-21l-63 -89q-7 -84 -24 -84q-7 3 -29 118l5 21l-10 69l5 41l-5 7v7l5 7v7l-5 21l5 21l-9 14l4 41l-19 63l10 27l-19 83q97 60 197 271q15 0 48 111l-130 124 q0 38 -101 97zM80 439h8v6h-8v-6zM92 231l4 -52h4l4 29l-4 29l-4 -6h-4zM92 248h8v6h-8v-6zM412 595q12 0 12 -12h8l-16 23l-4 -5v-6zM784 502h12v6h-12v-6z" />
<glyph unicode="y" horiz-adv-x="1094" d="M-9 1122v26q0 11 121 33l6 26h17q58 0 127 20l6 -6q0 21 127 52h6l12 -13v-20q0 -13 -18 -13v-26l12 -20v-13l-6 -7q89 -239 156 -369h6q41 0 86 363v59l-11 20v6q0 13 46 40h12q207 13 207 33l41 -7l133 20l17 -20q-25 0 -87 -158q-47 -43 -92 -191l-144 -356l-6 -6 l6 -7q0 -63 -116 -435l-46 -230l6 -19l-18 -14q-12 0 -46 112q-29 0 -46 -125q-40 -67 -121 -481l-12 -99h-11l-18 33v47q-48 0 -81 283v13l18 7v59l6 6l-6 7v66l-52 125l11 20q-19 0 -34 78v20q-14 0 -23 27v6q0 23 52 99l98 125q75 119 75 145v13q-35 0 -35 66 q-69 92 -69 119l11 13q-94 128 -213 349q-30 0 -64 86zM216 94h6l12 13v27l-18 -20v-20zM580 2v-13h6v13h-6zM990 1194l12 13h-12v-13z" />
<glyph unicode="z" horiz-adv-x="1024" d="M0 266v51q0 37 65 76q28 0 71 70l196 268q99 111 178 287h-6q-178 -38 -178 -102l-59 -147q-19 14 -36 64q-27 0 -29 38h-12q0 -36 -18 -64l6 -6l-12 -83l6 -25h-6l6 -7v-12q-24 -23 -59 -121h-12v19l6 6q-42 194 -48 300l6 6q-22 0 -41 216q-17 0 -24 134v32l12 13l-6 6 l6 38h6q110 -51 190 -51l35 7v-7l6 7h6l83 -13q62 10 225 89q63 0 196 77h6l12 -13l30 19h6v-6q0 -13 -42 -51l-6 -32q14 14 83 25l6 -6q28 0 101 32l30 -7q30 20 59 20l6 -7l6 7h6q13 0 17 -32l-6 -7h-5l-6 7h-6q0 -52 -119 -179q-55 -78 -101 -172q-91 -108 -112 -165 l-107 -185v-6h6q112 21 160 63l89 39q52 23 77 63l12 -19h-6l6 -6v-7l-18 -114l6 -7v-6l-6 -6v-7l6 -32q-12 0 -12 -19l6 -44l-12 -13l-6 -274l-12 -38v-32l-6 -102l6 -6v-7q-15 -57 -23 -57h-12q0 14 -71 83q-101 141 -101 166h-24l-41 -51l5 -7v-6q-20 -32 -53 -179h-6 l6 -6v-13l-18 19l6 26q-24 0 -24 38h6q-51 126 -71 147l-6 -7l-77 19q-59 0 -59 -57q0 -56 -42 -102q-31 22 -41 51h12v7q-60 0 -77 -96q-12 0 -12 -32l6 -19q-8 0 -30 -95l6 -6v-7l-12 -13l-6 7h-6l6 6v7q-10 11 -29 133l-54 108q-71 60 -71 102zM71 1090h12l-12 12v-12z M279 175l6 -18h6l11 12l-11 12h-12v-6zM818 641h12v12h-12v-12zM907 676h18v18h-18v-18z" />
<glyph unicode="{" horiz-adv-x="684" />
<glyph unicode="|" horiz-adv-x="532" />
<glyph unicode="}" horiz-adv-x="684" />
<glyph unicode="~" horiz-adv-x="1196" />
<glyph unicode="&#xa1;" horiz-adv-x="682" />
<glyph unicode="&#xa2;" />
<glyph unicode="&#xa3;" />
<glyph unicode="&#xa4;" />
<glyph unicode="&#xa5;" />
<glyph unicode="&#xa6;" horiz-adv-x="532" />
<glyph unicode="&#xa7;" />
<glyph unicode="&#xa8;" horiz-adv-x="682" />
<glyph unicode="&#xa9;" horiz-adv-x="1509" />
<glyph unicode="&#xaa;" horiz-adv-x="758" />
<glyph unicode="&#xab;" />
<glyph unicode="&#xac;" horiz-adv-x="1196" />
<glyph unicode="&#xad;" horiz-adv-x="682" d="M15 909h8l-8 4v12l16 8h8l16 -8q317 37 445 76l32 8l55 -4q0 16 24 16l56 12v-4l-8 -24l8 -4v-4l-16 -16l8 -16l-8 -12l8 -16h-8l8 -4l-8 -28v-28l-8 -4l8 -4v-12q0 -44 -215 -52l-302 -64q-95 0 -95 76zM619 913h8v8h-8v-8zM627 1001h8v8h-8v-8z" />
<glyph unicode="&#xae;" horiz-adv-x="1509" />
<glyph unicode="&#xaf;" horiz-adv-x="1131" />
<glyph unicode="&#xb0;" horiz-adv-x="819" />
<glyph unicode="&#xb1;" horiz-adv-x="1124" />
<glyph unicode="&#xb2;" horiz-adv-x="682" />
<glyph unicode="&#xb3;" horiz-adv-x="682" />
<glyph unicode="&#xb4;" horiz-adv-x="682" />
<glyph unicode="&#xb5;" horiz-adv-x="1180" />
<glyph unicode="&#xb6;" horiz-adv-x="1100" />
<glyph unicode="&#xb7;" horiz-adv-x="569" />
<glyph unicode="&#xb8;" horiz-adv-x="682" />
<glyph unicode="&#xb9;" horiz-adv-x="682" />
<glyph unicode="&#xba;" horiz-adv-x="748" />
<glyph unicode="&#xbb;" />
<glyph unicode="&#xbc;" horiz-adv-x="1708" />
<glyph unicode="&#xbd;" horiz-adv-x="1708" />
<glyph unicode="&#xbe;" horiz-adv-x="1708" />
<glyph unicode="&#xbf;" horiz-adv-x="1251" />
<glyph unicode="&#xc0;" horiz-adv-x="1366" />
<glyph unicode="&#xc1;" horiz-adv-x="1366" />
<glyph unicode="&#xc2;" horiz-adv-x="1366" />
<glyph unicode="&#xc3;" horiz-adv-x="1366" />
<glyph unicode="&#xc4;" horiz-adv-x="1366" />
<glyph unicode="&#xc5;" horiz-adv-x="1366" />
<glyph unicode="&#xc6;" horiz-adv-x="2048" />
<glyph unicode="&#xc7;" horiz-adv-x="1479" />
<glyph unicode="&#xc8;" horiz-adv-x="1366" />
<glyph unicode="&#xc9;" horiz-adv-x="1366" />
<glyph unicode="&#xca;" horiz-adv-x="1366" />
<glyph unicode="&#xcb;" horiz-adv-x="1366" />
<glyph unicode="&#xcc;" horiz-adv-x="569" />
<glyph unicode="&#xcd;" horiz-adv-x="569" />
<glyph unicode="&#xce;" horiz-adv-x="569" />
<glyph unicode="&#xcf;" horiz-adv-x="569" />
<glyph unicode="&#xd0;" horiz-adv-x="1479" />
<glyph unicode="&#xd1;" horiz-adv-x="1479" />
<glyph unicode="&#xd2;" horiz-adv-x="1593" />
<glyph unicode="&#xd3;" horiz-adv-x="1593" />
<glyph unicode="&#xd4;" horiz-adv-x="1593" />
<glyph unicode="&#xd5;" horiz-adv-x="1593" />
<glyph unicode="&#xd6;" horiz-adv-x="1593" />
<glyph unicode="&#xd7;" horiz-adv-x="1196" />
<glyph unicode="&#xd8;" horiz-adv-x="1593" />
<glyph unicode="&#xd9;" horiz-adv-x="1479" />
<glyph unicode="&#xda;" horiz-adv-x="1479" />
<glyph unicode="&#xdb;" horiz-adv-x="1479" />
<glyph unicode="&#xdc;" horiz-adv-x="1479" />
<glyph unicode="&#xdd;" horiz-adv-x="1366" />
<glyph unicode="&#xde;" horiz-adv-x="1366" />
<glyph unicode="&#xdf;" horiz-adv-x="1251" />
<glyph unicode="&#xe0;" />
<glyph unicode="&#xe1;" />
<glyph unicode="&#xe2;" />
<glyph unicode="&#xe3;" />
<glyph unicode="&#xe4;" />
<glyph unicode="&#xe5;" />
<glyph unicode="&#xe6;" horiz-adv-x="1821" />
<glyph unicode="&#xe7;" horiz-adv-x="1024" />
<glyph unicode="&#xe8;" />
<glyph unicode="&#xe9;" />
<glyph unicode="&#xea;" />
<glyph unicode="&#xeb;" />
<glyph unicode="&#xec;" horiz-adv-x="569" />
<glyph unicode="&#xed;" horiz-adv-x="569" />
<glyph unicode="&#xee;" horiz-adv-x="569" />
<glyph unicode="&#xef;" horiz-adv-x="569" />
<glyph unicode="&#xf0;" />
<glyph unicode="&#xf1;" />
<glyph unicode="&#xf2;" />
<glyph unicode="&#xf3;" />
<glyph unicode="&#xf4;" />
<glyph unicode="&#xf5;" />
<glyph unicode="&#xf6;" />
<glyph unicode="&#xf7;" horiz-adv-x="1124" />
<glyph unicode="&#xf8;" horiz-adv-x="1251" />
<glyph unicode="&#xf9;" />
<glyph unicode="&#xfa;" />
<glyph unicode="&#xfb;" />
<glyph unicode="&#xfc;" />
<glyph unicode="&#xfd;" horiz-adv-x="1024" />
<glyph unicode="&#xfe;" />
<glyph unicode="&#xff;" horiz-adv-x="1024" />
<glyph unicode="&#x152;" horiz-adv-x="2048" />
<glyph unicode="&#x153;" horiz-adv-x="1933" />
<glyph unicode="&#x178;" horiz-adv-x="1366" />
<glyph unicode="&#x2c6;" horiz-adv-x="682" />
<glyph unicode="&#x2dc;" horiz-adv-x="682" />
<glyph unicode="&#x2000;" horiz-adv-x="947" />
<glyph unicode="&#x2001;" horiz-adv-x="1894" />
<glyph unicode="&#x2002;" horiz-adv-x="947" />
<glyph unicode="&#x2003;" horiz-adv-x="1894" />
<glyph unicode="&#x2004;" horiz-adv-x="631" />
<glyph unicode="&#x2005;" horiz-adv-x="473" />
<glyph unicode="&#x2006;" horiz-adv-x="315" />
<glyph unicode="&#x2007;" horiz-adv-x="315" />
<glyph unicode="&#x2008;" horiz-adv-x="236" />
<glyph unicode="&#x2009;" horiz-adv-x="378" />
<glyph unicode="&#x200a;" horiz-adv-x="105" />
<glyph unicode="&#x2010;" horiz-adv-x="682" d="M15 909h8l-8 4v12l16 8h8l16 -8q317 37 445 76l32 8l55 -4q0 16 24 16l56 12v-4l-8 -24l8 -4v-4l-16 -16l8 -16l-8 -12l8 -16h-8l8 -4l-8 -28v-28l-8 -4l8 -4v-12q0 -44 -215 -52l-302 -64q-95 0 -95 76zM619 913h8v8h-8v-8zM627 1001h8v8h-8v-8z" />
<glyph unicode="&#x2011;" horiz-adv-x="682" d="M15 909h8l-8 4v12l16 8h8l16 -8q317 37 445 76l32 8l55 -4q0 16 24 16l56 12v-4l-8 -24l8 -4v-4l-16 -16l8 -16l-8 -12l8 -16h-8l8 -4l-8 -28v-28l-8 -4l8 -4v-12q0 -44 -215 -52l-302 -64q-95 0 -95 76zM619 913h8v8h-8v-8zM627 1001h8v8h-8v-8z" />
<glyph unicode="&#x2012;" horiz-adv-x="682" d="M15 909h8l-8 4v12l16 8h8l16 -8q317 37 445 76l32 8l55 -4q0 16 24 16l56 12v-4l-8 -24l8 -4v-4l-16 -16l8 -16l-8 -12l8 -16h-8l8 -4l-8 -28v-28l-8 -4l8 -4v-12q0 -44 -215 -52l-302 -64q-95 0 -95 76zM619 913h8v8h-8v-8zM627 1001h8v8h-8v-8z" />
<glyph unicode="&#x2013;" />
<glyph unicode="&#x2014;" horiz-adv-x="2048" />
<glyph unicode="&#x2018;" horiz-adv-x="455" />
<glyph unicode="&#x2019;" horiz-adv-x="455" />
<glyph unicode="&#x201a;" horiz-adv-x="455" />
<glyph unicode="&#x201c;" horiz-adv-x="682" />
<glyph unicode="&#x201d;" horiz-adv-x="682" />
<glyph unicode="&#x201e;" horiz-adv-x="682" />
<glyph unicode="&#x2022;" horiz-adv-x="717" />
<glyph unicode="&#x2026;" horiz-adv-x="2048" />
<glyph unicode="&#x202f;" horiz-adv-x="378" />
<glyph unicode="&#x2039;" horiz-adv-x="682" />
<glyph unicode="&#x203a;" horiz-adv-x="682" />
<glyph unicode="&#x205f;" horiz-adv-x="473" />
<glyph unicode="&#x20ac;" />
<glyph unicode="&#x2122;" horiz-adv-x="2048" />
<glyph unicode="&#xe000;" horiz-adv-x="1415" d="M0 0v1415h1415v-1415h-1415z" />
</font>
</defs>
</svg>
